<!DOCTYPE svg PUBLIC "-//W3C//DTD SVG 1.1//EN" "http://www.w3.org/Graphics/SVG/1.1/DTD/svg11.dtd">
<svg xmlns="http://www.w3.org/2000/svg" xmlns:xlink="http://www.w3.org/1999/xlink" xmlns:jfreesvg="http://www.jfree.org/jfreesvg/svg" width="800" height="600" text-rendering="auto" shape-rendering="auto">
<defs><clipPath id="4744385419576815639clip-0"><path d="M 0 0 L 800 0 L 800 600 L 0 600 L 0 0 Z "/></clipPath>
<clipPath id="4744385419576815639clip-1"><path d="M 276.75 243.25 L 276.75 1043.25 L -323.25 1043.25 L -323.25 243.25 L 276.75 243.25 Z "/></clipPath>
<clipPath id="4744385419576815639clip-2"><path d="M 53.51 29 L 53.51 491.01 L 752 491.01 L 752 29 Z "/></clipPath>
</defs>
<rect x="0" y="0" width="800" height="600" style="fill: rgb(255,255,255); fill-opacity: 1.0" clip-path="url(#4744385419576815639clip-0)"/><g ><text x="276.64" y="10.05" style="fill: rgb(0,0,0); fill-opacity: 1.0; font-family: Liberation Sans; font-size: 10px;" clip-path="url(#4744385419576815639clip-0)">MEAN ERROR for predictions of DISCHARGE</text></g><g ><text x="214.94" y="21.55" style="fill: rgb(0,0,0); fill-opacity: 1.0; font-family: Liberation Sans; font-size: 10px;" clip-path="url(#4744385419576815639clip-0)">at (left=FAKE2, right=FAKE2) with Time Scale [10800 SECONDS, MEAN] </text></g><rect x="1" y="529" width="758" height="70" style="fill: rgb(255,255,255); fill-opacity: 0.0" clip-path="url(#4744385419576815639clip-0)"/><g ><text x="4" y="540.06" style="fill: rgb(0,0,0); fill-opacity: 1.0; font-family: Liberation Sans; font-size: 10px;" clip-path="url(#4744385419576815639clip-0)">Lead time window [SECONDS], Valid time window (UTC), Threshold [CMS]:</text></g><g style="stroke-width: 0.5;stroke: rgb(255,85,85);stroke-opacity: 1.0;stroke-linecap: square;; fill: none" clip-path="url(#4744385419576815639clip-0)"><path d="M 344.77 537.75 L 358.77 537.75"/></g><g style="fill: rgb(255,85,85); fill-opacity: 1.0; stroke: none" clip-path="url(#4744385419576815639clip-0)"><path d="M 348.77 534.75 L 354.77 534.75 L 354.77 540.75 L 348.77 540.75 L 348.77 534.75 Z "/></g><g style="stroke-width: 1.0;stroke: rgb(255,85,85);stroke-opacity: 1.0;stroke-linecap: square;; fill: none" clip-path="url(#4744385419576815639clip-0)"><path d="M 348.77 534.75 L 354.77 534.75 L 354.77 540.75 L 348.77 540.75 L 348.77 534.75 Z "/></g><g ><text x="362.77" y="541.06" style="fill: rgb(0,0,0); fill-opacity: 1.0; font-family: Liberation Sans; font-size: 10px;" clip-path="url(#4744385419576815639clip-0)">(0,82800], (2551-03-17T00:00:00,2551-03-19T08:00:00], All data</text></g><g style="stroke-width: 0.5;stroke: rgb(85,85,255);stroke-opacity: 1.0;stroke-linecap: square;; fill: none" clip-path="url(#4744385419576815639clip-0)"><path d="M 344.77 555.25 L 358.77 555.25"/></g><g style="fill: rgb(85,85,255); fill-opacity: 1.0; stroke: none" clip-path="url(#4744385419576815639clip-0)"><path d="M 354.77 555.25 C 354.77 556.91 353.43 558.25 351.77 558.25 C 350.12 558.25 348.77 556.91 348.77 555.25 C 348.77 553.6 350.12 552.25 351.77 552.25 C 353.43 552.25 354.77 553.6 354.77 555.25 Z "/></g><g style="stroke-width: 1.0;stroke: rgb(85,85,255);stroke-opacity: 1.0;stroke-linecap: square;; fill: none" clip-path="url(#4744385419576815639clip-0)"><path d="M 354.77 555.25 C 354.77 556.91 353.43 558.25 351.77 558.25 C 350.12 558.25 348.77 556.91 348.77 555.25 C 348.77 553.6 350.12 552.25 351.77 552.25 C 353.43 552.25 354.77 553.6 354.77 555.25 Z "/></g><g ><text x="362.77" y="558.56" style="fill: rgb(0,0,0); fill-opacity: 1.0; font-family: Liberation Sans; font-size: 10px;" clip-path="url(#4744385419576815639clip-0)">(0,82800], (2551-03-19T08:00:00,2551-03-21T16:00:00], All data</text></g><g style="stroke-width: 0.5;stroke: rgb(85,255,85);stroke-opacity: 1.0;stroke-linecap: square;; fill: none" clip-path="url(#4744385419576815639clip-0)"><path d="M 344.77 572.75 L 358.77 572.75"/></g><g style="fill: rgb(85,255,85); fill-opacity: 1.0; stroke: none" clip-path="url(#4744385419576815639clip-0)"><path d="M 351.77 569.75 L 354.77 575.75 L 348.77 575.75 Z "/></g><g style="stroke-width: 1.0;stroke: rgb(85,255,85);stroke-opacity: 1.0;stroke-linecap: square;; fill: none" clip-path="url(#4744385419576815639clip-0)"><path d="M 351.77 569.75 L 354.77 575.75 L 348.77 575.75 Z "/></g><g ><text x="362.77" y="576.05" style="fill: rgb(0,0,0); fill-opacity: 1.0; font-family: Liberation Sans; font-size: 10px;" clip-path="url(#4744385419576815639clip-0)">(61200,144000], (2551-03-17T00:00:00,2551-03-19T08:00:00], All data</text></g><g style="stroke-width: 0.5;stroke: rgb(255,85,255);stroke-opacity: 1.0;stroke-linecap: square;; fill: none" clip-path="url(#4744385419576815639clip-0)"><path d="M 344.77 590.25 L 358.77 590.25"/></g><g style="fill: rgb(255,85,255); fill-opacity: 1.0; stroke: none" clip-path="url(#4744385419576815639clip-0)"><path d="M 351.77 587.25 L 354.77 590.25 L 351.77 593.25 L 348.77 590.25 Z "/></g><g style="stroke-width: 1.0;stroke: rgb(255,85,255);stroke-opacity: 1.0;stroke-linecap: square;; fill: none" clip-path="url(#4744385419576815639clip-0)"><path d="M 351.77 587.25 L 354.77 590.25 L 351.77 593.25 L 348.77 590.25 Z "/></g><g ><text x="362.77" y="593.55" style="fill: rgb(0,0,0); fill-opacity: 1.0; font-family: Liberation Sans; font-size: 10px;" clip-path="url(#4744385419576815639clip-0)">(61200,144000], (2551-03-19T08:00:00,2551-03-21T16:00:00], All data</text></g><line x1="53.51" y1="491.01" x2="752" y2="491.01" style="stroke-width: 1.0;stroke: rgb(128,128,128);stroke-opacity: 1.0;stroke-linecap: square;" clip-path="url(#4744385419576815639clip-0)"/><g ><text x="43.65" y="504.06" style="fill: rgb(0,0,0); fill-opacity: 1.0; font-family: Liberation Sans; font-size: 10px;" clip-path="url(#4744385419576815639clip-0)">2551-03-17+06</text></g><line x1="77.7" y1="493.01" x2="77.7" y2="491.01" style="stroke-width: 1.0;stroke: rgb(128,128,128);stroke-opacity: 1.0;stroke-linecap: square;" clip-path="url(#4744385419576815639clip-0)"/><g ><text x="134.36" y="504.06" style="fill: rgb(0,0,0); fill-opacity: 1.0; font-family: Liberation Sans; font-size: 10px;" clip-path="url(#4744385419576815639clip-0)">2551-03-17+12</text></g><line x1="168.42" y1="493.01" x2="168.42" y2="491.01" style="stroke-width: 1.0;stroke: rgb(128,128,128);stroke-opacity: 1.0;stroke-linecap: square;" clip-path="url(#4744385419576815639clip-0)"/><g ><text x="225.07" y="504.06" style="fill: rgb(0,0,0); fill-opacity: 1.0; font-family: Liberation Sans; font-size: 10px;" clip-path="url(#4744385419576815639clip-0)">2551-03-17+18</text></g><line x1="259.13" y1="493.01" x2="259.13" y2="491.01" style="stroke-width: 1.0;stroke: rgb(128,128,128);stroke-opacity: 1.0;stroke-linecap: square;" clip-path="url(#4744385419576815639clip-0)"/><g ><text x="315.78" y="504.06" style="fill: rgb(0,0,0); fill-opacity: 1.0; font-family: Liberation Sans; font-size: 10px;" clip-path="url(#4744385419576815639clip-0)">2551-03-18+00</text></g><line x1="349.84" y1="493.01" x2="349.84" y2="491.01" style="stroke-width: 1.0;stroke: rgb(128,128,128);stroke-opacity: 1.0;stroke-linecap: square;" clip-path="url(#4744385419576815639clip-0)"/><g ><text x="406.5" y="504.06" style="fill: rgb(0,0,0); fill-opacity: 1.0; font-family: Liberation Sans; font-size: 10px;" clip-path="url(#4744385419576815639clip-0)">2551-03-18+06</text></g><line x1="440.55" y1="493.01" x2="440.55" y2="491.01" style="stroke-width: 1.0;stroke: rgb(128,128,128);stroke-opacity: 1.0;stroke-linecap: square;" clip-path="url(#4744385419576815639clip-0)"/><g ><text x="497.21" y="504.06" style="fill: rgb(0,0,0); fill-opacity: 1.0; font-family: Liberation Sans; font-size: 10px;" clip-path="url(#4744385419576815639clip-0)">2551-03-18+12</text></g><line x1="531.27" y1="493.01" x2="531.27" y2="491.01" style="stroke-width: 1.0;stroke: rgb(128,128,128);stroke-opacity: 1.0;stroke-linecap: square;" clip-path="url(#4744385419576815639clip-0)"/><g ><text x="587.92" y="504.06" style="fill: rgb(0,0,0); fill-opacity: 1.0; font-family: Liberation Sans; font-size: 10px;" clip-path="url(#4744385419576815639clip-0)">2551-03-18+18</text></g><line x1="621.98" y1="493.01" x2="621.98" y2="491.01" style="stroke-width: 1.0;stroke: rgb(128,128,128);stroke-opacity: 1.0;stroke-linecap: square;" clip-path="url(#4744385419576815639clip-0)"/><g ><text x="678.63" y="504.06" style="fill: rgb(0,0,0); fill-opacity: 1.0; font-family: Liberation Sans; font-size: 10px;" clip-path="url(#4744385419576815639clip-0)">2551-03-19+00</text></g><line x1="712.69" y1="493.01" x2="712.69" y2="491.01" style="stroke-width: 1.0;stroke: rgb(128,128,128);stroke-opacity: 1.0;stroke-linecap: square;" clip-path="url(#4744385419576815639clip-0)"/><g ><text x="281.65" y="518.56" style="fill: rgb(0,0,0); fill-opacity: 1.0; font-family: Liberation Sans; font-size: 10px;" clip-path="url(#4744385419576815639clip-0)">TIME AT CENTER OF ISSUED TIME WINDOW [UTC]</text></g><rect x="53.51" y="29" width="698.49" height="462.01" style="fill: rgb(255,255,255); fill-opacity: 0.0" clip-path="url(#4744385419576815639clip-0)"/><line x1="53.51" y1="29" x2="53.51" y2="491.01" style="stroke-width: 1.0;stroke: rgb(128,128,128);stroke-opacity: 1.0;stroke-linecap: square;" clip-path="url(#4744385419576815639clip-0)"/><g ><text x="27.5" y="473.98" style="fill: rgb(0,0,0); fill-opacity: 1.0; font-family: Liberation Sans; font-size: 10px;" clip-path="url(#4744385419576815639clip-0)">-500</text></g><line x1="51.51" y1="470.67" x2="53.51" y2="470.67" style="stroke-width: 1.0;stroke: rgb(128,128,128);stroke-opacity: 1.0;stroke-linecap: square;" clip-path="url(#4744385419576815639clip-0)"/><g ><text x="27.5" y="451.89" style="fill: rgb(0,0,0); fill-opacity: 1.0; font-family: Liberation Sans; font-size: 10px;" clip-path="url(#4744385419576815639clip-0)">-475</text></g><line x1="51.51" y1="448.59" x2="53.51" y2="448.59" style="stroke-width: 1.0;stroke: rgb(128,128,128);stroke-opacity: 1.0;stroke-linecap: square;" clip-path="url(#4744385419576815639clip-0)"/><g ><text x="27.5" y="429.81" style="fill: rgb(0,0,0); fill-opacity: 1.0; font-family: Liberation Sans; font-size: 10px;" clip-path="url(#4744385419576815639clip-0)">-450</text></g><line x1="51.51" y1="426.51" x2="53.51" y2="426.51" style="stroke-width: 1.0;stroke: rgb(128,128,128);stroke-opacity: 1.0;stroke-linecap: square;" clip-path="url(#4744385419576815639clip-0)"/><g ><text x="27.5" y="407.73" style="fill: rgb(0,0,0); fill-opacity: 1.0; font-family: Liberation Sans; font-size: 10px;" clip-path="url(#4744385419576815639clip-0)">-425</text></g><line x1="51.51" y1="404.42" x2="53.51" y2="404.42" style="stroke-width: 1.0;stroke: rgb(128,128,128);stroke-opacity: 1.0;stroke-linecap: square;" clip-path="url(#4744385419576815639clip-0)"/><g ><text x="27.5" y="385.64" style="fill: rgb(0,0,0); fill-opacity: 1.0; font-family: Liberation Sans; font-size: 10px;" clip-path="url(#4744385419576815639clip-0)">-400</text></g><line x1="51.51" y1="382.34" x2="53.51" y2="382.34" style="stroke-width: 1.0;stroke: rgb(128,128,128);stroke-opacity: 1.0;stroke-linecap: square;" clip-path="url(#4744385419576815639clip-0)"/><g ><text x="27.5" y="363.56" style="fill: rgb(0,0,0); fill-opacity: 1.0; font-family: Liberation Sans; font-size: 10px;" clip-path="url(#4744385419576815639clip-0)">-375</text></g><line x1="51.51" y1="360.26" x2="53.51" y2="360.26" style="stroke-width: 1.0;stroke: rgb(128,128,128);stroke-opacity: 1.0;stroke-linecap: square;" clip-path="url(#4744385419576815639clip-0)"/><g ><text x="27.5" y="341.47" style="fill: rgb(0,0,0); fill-opacity: 1.0; font-family: Liberation Sans; font-size: 10px;" clip-path="url(#4744385419576815639clip-0)">-350</text></g><line x1="51.51" y1="338.17" x2="53.51" y2="338.17" style="stroke-width: 1.0;stroke: rgb(128,128,128);stroke-opacity: 1.0;stroke-linecap: square;" clip-path="url(#4744385419576815639clip-0)"/><g ><text x="27.5" y="319.39" style="fill: rgb(0,0,0); fill-opacity: 1.0; font-family: Liberation Sans; font-size: 10px;" clip-path="url(#4744385419576815639clip-0)">-325</text></g><line x1="51.51" y1="316.09" x2="53.51" y2="316.09" style="stroke-width: 1.0;stroke: rgb(128,128,128);stroke-opacity: 1.0;stroke-linecap: square;" clip-path="url(#4744385419576815639clip-0)"/><g ><text x="27.5" y="297.31" style="fill: rgb(0,0,0); fill-opacity: 1.0; font-family: Liberation Sans; font-size: 10px;" clip-path="url(#4744385419576815639clip-0)">-300</text></g><line x1="51.51" y1="294" x2="53.51" y2="294" style="stroke-width: 1.0;stroke: rgb(128,128,128);stroke-opacity: 1.0;stroke-linecap: square;" clip-path="url(#4744385419576815639clip-0)"/><g ><text x="27.5" y="275.22" style="fill: rgb(0,0,0); fill-opacity: 1.0; font-family: Liberation Sans; font-size: 10px;" clip-path="url(#4744385419576815639clip-0)">-275</text></g><line x1="51.51" y1="271.92" x2="53.51" y2="271.92" style="stroke-width: 1.0;stroke: rgb(128,128,128);stroke-opacity: 1.0;stroke-linecap: square;" clip-path="url(#4744385419576815639clip-0)"/><g ><text x="27.5" y="253.14" style="fill: rgb(0,0,0); fill-opacity: 1.0; font-family: Liberation Sans; font-size: 10px;" clip-path="url(#4744385419576815639clip-0)">-250</text></g><line x1="51.51" y1="249.84" x2="53.51" y2="249.84" style="stroke-width: 1.0;stroke: rgb(128,128,128);stroke-opacity: 1.0;stroke-linecap: square;" clip-path="url(#4744385419576815639clip-0)"/><g ><text x="27.5" y="231.06" style="fill: rgb(0,0,0); fill-opacity: 1.0; font-family: Liberation Sans; font-size: 10px;" clip-path="url(#4744385419576815639clip-0)">-225</text></g><line x1="51.51" y1="227.75" x2="53.51" y2="227.75" style="stroke-width: 1.0;stroke: rgb(128,128,128);stroke-opacity: 1.0;stroke-linecap: square;" clip-path="url(#4744385419576815639clip-0)"/><g ><text x="27.5" y="208.97" style="fill: rgb(0,0,0); fill-opacity: 1.0; font-family: Liberation Sans; font-size: 10px;" clip-path="url(#4744385419576815639clip-0)">-200</text></g><line x1="51.51" y1="205.67" x2="53.51" y2="205.67" style="stroke-width: 1.0;stroke: rgb(128,128,128);stroke-opacity: 1.0;stroke-linecap: square;" clip-path="url(#4744385419576815639clip-0)"/><g ><text x="27.5" y="186.89" style="fill: rgb(0,0,0); fill-opacity: 1.0; font-family: Liberation Sans; font-size: 10px;" clip-path="url(#4744385419576815639clip-0)">-175</text></g><line x1="51.51" y1="183.58" x2="53.51" y2="183.58" style="stroke-width: 1.0;stroke: rgb(128,128,128);stroke-opacity: 1.0;stroke-linecap: square;" clip-path="url(#4744385419576815639clip-0)"/><g ><text x="27.5" y="164.8" style="fill: rgb(0,0,0); fill-opacity: 1.0; font-family: Liberation Sans; font-size: 10px;" clip-path="url(#4744385419576815639clip-0)">-150</text></g><line x1="51.51" y1="161.5" x2="53.51" y2="161.5" style="stroke-width: 1.0;stroke: rgb(128,128,128);stroke-opacity: 1.0;stroke-linecap: square;" clip-path="url(#4744385419576815639clip-0)"/><g ><text x="27.5" y="142.72" style="fill: rgb(0,0,0); fill-opacity: 1.0; font-family: Liberation Sans; font-size: 10px;" clip-path="url(#4744385419576815639clip-0)">-125</text></g><line x1="51.51" y1="139.42" x2="53.51" y2="139.42" style="stroke-width: 1.0;stroke: rgb(128,128,128);stroke-opacity: 1.0;stroke-linecap: square;" clip-path="url(#4744385419576815639clip-0)"/><g ><text x="27.5" y="120.64" style="fill: rgb(0,0,0); fill-opacity: 1.0; font-family: Liberation Sans; font-size: 10px;" clip-path="url(#4744385419576815639clip-0)">-100</text></g><line x1="51.51" y1="117.33" x2="53.51" y2="117.33" style="stroke-width: 1.0;stroke: rgb(128,128,128);stroke-opacity: 1.0;stroke-linecap: square;" clip-path="url(#4744385419576815639clip-0)"/><g ><text x="33.06" y="98.55" style="fill: rgb(0,0,0); fill-opacity: 1.0; font-family: Liberation Sans; font-size: 10px;" clip-path="url(#4744385419576815639clip-0)">-75</text></g><line x1="51.51" y1="95.25" x2="53.51" y2="95.25" style="stroke-width: 1.0;stroke: rgb(128,128,128);stroke-opacity: 1.0;stroke-linecap: square;" clip-path="url(#4744385419576815639clip-0)"/><g ><text x="33.06" y="76.47" style="fill: rgb(0,0,0); fill-opacity: 1.0; font-family: Liberation Sans; font-size: 10px;" clip-path="url(#4744385419576815639clip-0)">-50</text></g><line x1="51.51" y1="73.17" x2="53.51" y2="73.17" style="stroke-width: 1.0;stroke: rgb(128,128,128);stroke-opacity: 1.0;stroke-linecap: square;" clip-path="url(#4744385419576815639clip-0)"/><g ><text x="33.06" y="54.39" style="fill: rgb(0,0,0); fill-opacity: 1.0; font-family: Liberation Sans; font-size: 10px;" clip-path="url(#4744385419576815639clip-0)">-25</text></g><line x1="51.51" y1="51.08" x2="53.51" y2="51.08" style="stroke-width: 1.0;stroke: rgb(128,128,128);stroke-opacity: 1.0;stroke-linecap: square;" clip-path="url(#4744385419576815639clip-0)"/><g ><text x="41.95" y="32.3" style="fill: rgb(0,0,0); fill-opacity: 1.0; font-family: Liberation Sans; font-size: 10px;" clip-path="url(#4744385419576815639clip-0)">0</text></g><line x1="51.51" y1="29" x2="53.51" y2="29" style="stroke-width: 1.0;stroke: rgb(128,128,128);stroke-opacity: 1.0;stroke-linecap: square;" clip-path="url(#4744385419576815639clip-0)"/><g transform="matrix(0,-1,1,0,-243.252441,276.751465)"><text x="-32.42" y="263.31" style="fill: rgb(0,0,0); fill-opacity: 1.0; font-family: Liberation Sans; font-size: 10px;" clip-path="url(#4744385419576815639clip-1)">MEAN ERROR [CMS]</text></g><line x1="77.7" y1="29" x2="77.7" y2="491.01" style="stroke-width: 0.5;stroke: rgb(192,192,192);stroke-opacity: 1.0;stroke-linejoin: bevel;stroke-dasharray: 2.0, 2.0;" clip-path="url(#4744385419576815639clip-2)"/><line x1="168.42" y1="29" x2="168.42" y2="491.01" style="stroke-width: 0.5;stroke: rgb(192,192,192);stroke-opacity: 1.0;stroke-linejoin: bevel;stroke-dasharray: 2.0, 2.0;" clip-path="url(#4744385419576815639clip-2)"/><line x1="259.13" y1="29" x2="259.13" y2="491.01" style="stroke-width: 0.5;stroke: rgb(192,192,192);stroke-opacity: 1.0;stroke-linejoin: bevel;stroke-dasharray: 2.0, 2.0;" clip-path="url(#4744385419576815639clip-2)"/><line x1="349.84" y1="29" x2="349.84" y2="491.01" style="stroke-width: 0.5;stroke: rgb(192,192,192);stroke-opacity: 1.0;stroke-linejoin: bevel;stroke-dasharray: 2.0, 2.0;" clip-path="url(#4744385419576815639clip-2)"/><line x1="440.55" y1="29" x2="440.55" y2="491.01" style="stroke-width: 0.5;stroke: rgb(192,192,192);stroke-opacity: 1.0;stroke-linejoin: bevel;stroke-dasharray: 2.0, 2.0;" clip-path="url(#4744385419576815639clip-2)"/><line x1="531.27" y1="29" x2="531.27" y2="491.01" style="stroke-width: 0.5;stroke: rgb(192,192,192);stroke-opacity: 1.0;stroke-linejoin: bevel;stroke-dasharray: 2.0, 2.0;" clip-path="url(#4744385419576815639clip-2)"/><line x1="621.98" y1="29" x2="621.98" y2="491.01" style="stroke-width: 0.5;stroke: rgb(192,192,192);stroke-opacity: 1.0;stroke-linejoin: bevel;stroke-dasharray: 2.0, 2.0;" clip-path="url(#4744385419576815639clip-2)"/><line x1="712.69" y1="29" x2="712.69" y2="491.01" style="stroke-width: 0.5;stroke: rgb(192,192,192);stroke-opacity: 1.0;stroke-linejoin: bevel;stroke-dasharray: 2.0, 2.0;" clip-path="url(#4744385419576815639clip-2)"/><line x1="53.51" y1="470.67" x2="752" y2="470.67" style="stroke-width: 0.5;stroke: rgb(192,192,192);stroke-opacity: 1.0;stroke-linejoin: bevel;stroke-dasharray: 2.0, 2.0;" clip-path="url(#4744385419576815639clip-2)"/><line x1="53.51" y1="448.59" x2="752" y2="448.59" style="stroke-width: 0.5;stroke: rgb(192,192,192);stroke-opacity: 1.0;stroke-linejoin: bevel;stroke-dasharray: 2.0, 2.0;" clip-path="url(#4744385419576815639clip-2)"/><line x1="53.51" y1="426.51" x2="752" y2="426.51" style="stroke-width: 0.5;stroke: rgb(192,192,192);stroke-opacity: 1.0;stroke-linejoin: bevel;stroke-dasharray: 2.0, 2.0;" clip-path="url(#4744385419576815639clip-2)"/><line x1="53.51" y1="404.42" x2="752" y2="404.42" style="stroke-width: 0.5;stroke: rgb(192,192,192);stroke-opacity: 1.0;stroke-linejoin: bevel;stroke-dasharray: 2.0, 2.0;" clip-path="url(#4744385419576815639clip-2)"/><line x1="53.51" y1="382.34" x2="752" y2="382.34" style="stroke-width: 0.5;stroke: rgb(192,192,192);stroke-opacity: 1.0;stroke-linejoin: bevel;stroke-dasharray: 2.0, 2.0;" clip-path="url(#4744385419576815639clip-2)"/><line x1="53.51" y1="360.26" x2="752" y2="360.26" style="stroke-width: 0.5;stroke: rgb(192,192,192);stroke-opacity: 1.0;stroke-linejoin: bevel;stroke-dasharray: 2.0, 2.0;" clip-path="url(#4744385419576815639clip-2)"/><line x1="53.51" y1="338.17" x2="752" y2="338.17" style="stroke-width: 0.5;stroke: rgb(192,192,192);stroke-opacity: 1.0;stroke-linejoin: bevel;stroke-dasharray: 2.0, 2.0;" clip-path="url(#4744385419576815639clip-2)"/><line x1="53.51" y1="316.09" x2="752" y2="316.09" style="stroke-width: 0.5;stroke: rgb(192,192,192);stroke-opacity: 1.0;stroke-linejoin: bevel;stroke-dasharray: 2.0, 2.0;" clip-path="url(#4744385419576815639clip-2)"/><line x1="53.51" y1="294" x2="752" y2="294" style="stroke-width: 0.5;stroke: rgb(192,192,192);stroke-opacity: 1.0;stroke-linejoin: bevel;stroke-dasharray: 2.0, 2.0;" clip-path="url(#4744385419576815639clip-2)"/><line x1="53.51" y1="271.92" x2="752" y2="271.92" style="stroke-width: 0.5;stroke: rgb(192,192,192);stroke-opacity: 1.0;stroke-linejoin: bevel;stroke-dasharray: 2.0, 2.0;" clip-path="url(#4744385419576815639clip-2)"/><line x1="53.51" y1="249.84" x2="752" y2="249.84" style="stroke-width: 0.5;stroke: rgb(192,192,192);stroke-opacity: 1.0;stroke-linejoin: bevel;stroke-dasharray: 2.0, 2.0;" clip-path="url(#4744385419576815639clip-2)"/><line x1="53.51" y1="227.75" x2="752" y2="227.75" style="stroke-width: 0.5;stroke: rgb(192,192,192);stroke-opacity: 1.0;stroke-linejoin: bevel;stroke-dasharray: 2.0, 2.0;" clip-path="url(#4744385419576815639clip-2)"/><line x1="53.51" y1="205.67" x2="752" y2="205.67" style="stroke-width: 0.5;stroke: rgb(192,192,192);stroke-opacity: 1.0;stroke-linejoin: bevel;stroke-dasharray: 2.0, 2.0;" clip-path="url(#4744385419576815639clip-2)"/><line x1="53.51" y1="183.58" x2="752" y2="183.58" style="stroke-width: 0.5;stroke: rgb(192,192,192);stroke-opacity: 1.0;stroke-linejoin: bevel;stroke-dasharray: 2.0, 2.0;" clip-path="url(#4744385419576815639clip-2)"/><line x1="53.51" y1="161.5" x2="752" y2="161.5" style="stroke-width: 0.5;stroke: rgb(192,192,192);stroke-opacity: 1.0;stroke-linejoin: bevel;stroke-dasharray: 2.0, 2.0;" clip-path="url(#4744385419576815639clip-2)"/><line x1="53.51" y1="139.42" x2="752" y2="139.42" style="stroke-width: 0.5;stroke: rgb(192,192,192);stroke-opacity: 1.0;stroke-linejoin: bevel;stroke-dasharray: 2.0, 2.0;" clip-path="url(#4744385419576815639clip-2)"/><line x1="53.51" y1="117.33" x2="752" y2="117.33" style="stroke-width: 0.5;stroke: rgb(192,192,192);stroke-opacity: 1.0;stroke-linejoin: bevel;stroke-dasharray: 2.0, 2.0;" clip-path="url(#4744385419576815639clip-2)"/><line x1="53.51" y1="95.25" x2="752" y2="95.25" style="stroke-width: 0.5;stroke: rgb(192,192,192);stroke-opacity: 1.0;stroke-linejoin: bevel;stroke-dasharray: 2.0, 2.0;" clip-path="url(#4744385419576815639clip-2)"/><line x1="53.51" y1="73.17" x2="752" y2="73.17" style="stroke-width: 0.5;stroke: rgb(192,192,192);stroke-opacity: 1.0;stroke-linejoin: bevel;stroke-dasharray: 2.0, 2.0;" clip-path="url(#4744385419576815639clip-2)"/><line x1="53.51" y1="51.08" x2="752" y2="51.08" style="stroke-width: 0.5;stroke: rgb(192,192,192);stroke-opacity: 1.0;stroke-linejoin: bevel;stroke-dasharray: 2.0, 2.0;" clip-path="url(#4744385419576815639clip-2)"/><line x1="53.51" y1="29" x2="752" y2="29" style="stroke-width: 0.5;stroke: rgb(192,192,192);stroke-opacity: 1.0;stroke-linejoin: bevel;stroke-dasharray: 2.0, 2.0;" clip-path="url(#4744385419576815639clip-2)"/><g style="fill: rgb(255,85,255); fill-opacity: 1.0; stroke: none" clip-path="url(#4744385419576815639clip-2)"><path d="M 296.93 458.25 L 299.93 461.25 L 296.93 464.25 L 293.93 461.25 Z "/></g><g style="stroke-width: 1.0;stroke: rgb(255,85,255);stroke-opacity: 1.0;stroke-linecap: square;; fill: none" clip-path="url(#4744385419576815639clip-2)"><path d="M 296.93 458.25 L 299.93 461.25 L 296.93 464.25 L 293.93 461.25 Z "/></g><line x1="296.93" y1="461.25" x2="402.76" y2="461.25" style="stroke-width: 0.5;stroke: rgb(255,85,255);stroke-opacity: 1.0;stroke-linecap: square;" clip-path="url(#4744385419576815639clip-2)"/><g style="fill: rgb(255,85,255); fill-opacity: 1.0; stroke: none" clip-path="url(#4744385419576815639clip-2)"><path d="M 402.76 458.25 L 405.76 461.25 L 402.76 464.25 L 399.76 461.25 Z "/></g><g style="stroke-width: 1.0;stroke: rgb(255,85,255);stroke-opacity: 1.0;stroke-linecap: square;; fill: none" clip-path="url(#4744385419576815639clip-2)"><path d="M 402.76 458.25 L 405.76 461.25 L 402.76 464.25 L 399.76 461.25 Z "/></g><line x1="402.76" y1="461.25" x2="508.59" y2="454.07" style="stroke-width: 0.5;stroke: rgb(255,85,255);stroke-opacity: 1.0;stroke-linecap: square;" clip-path="url(#4744385419576815639clip-2)"/><g style="fill: rgb(255,85,255); fill-opacity: 1.0; stroke: none" clip-path="url(#4744385419576815639clip-2)"><path d="M 508.59 451.07 L 511.59 454.07 L 508.59 457.07 L 505.59 454.07 Z "/></g><g style="stroke-width: 1.0;stroke: rgb(255,85,255);stroke-opacity: 1.0;stroke-linecap: square;; fill: none" clip-path="url(#4744385419576815639clip-2)"><path d="M 508.59 451.07 L 511.59 454.07 L 508.59 457.07 L 505.59 454.07 Z "/></g><line x1="508.59" y1="454.07" x2="614.42" y2="462.22" style="stroke-width: 0.5;stroke: rgb(255,85,255);stroke-opacity: 1.0;stroke-linecap: square;" clip-path="url(#4744385419576815639clip-2)"/><g style="fill: rgb(255,85,255); fill-opacity: 1.0; stroke: none" clip-path="url(#4744385419576815639clip-2)"><path d="M 614.42 459.22 L 617.42 462.22 L 614.42 465.22 L 611.42 462.22 Z "/></g><g style="stroke-width: 1.0;stroke: rgb(255,85,255);stroke-opacity: 1.0;stroke-linecap: square;; fill: none" clip-path="url(#4744385419576815639clip-2)"><path d="M 614.42 459.22 L 617.42 462.22 L 614.42 465.22 L 611.42 462.22 Z "/></g><line x1="614.42" y1="462.22" x2="720.25" y2="469.01" style="stroke-width: 0.5;stroke: rgb(255,85,255);stroke-opacity: 1.0;stroke-linecap: square;" clip-path="url(#4744385419576815639clip-2)"/><g style="fill: rgb(255,85,255); fill-opacity: 1.0; stroke: none" clip-path="url(#4744385419576815639clip-2)"><path d="M 720.25 466.01 L 723.25 469.01 L 720.25 472.01 L 717.25 469.01 Z "/></g><g style="stroke-width: 1.0;stroke: rgb(255,85,255);stroke-opacity: 1.0;stroke-linecap: square;; fill: none" clip-path="url(#4744385419576815639clip-2)"><path d="M 720.25 466.01 L 723.25 469.01 L 720.25 472.01 L 717.25 469.01 Z "/></g><g style="fill: rgb(85,255,85); fill-opacity: 1.0; stroke: none" clip-path="url(#4744385419576815639clip-2)"><path d="M 85.26 417.52 L 88.26 423.52 L 82.26 423.52 Z "/></g><g style="stroke-width: 1.0;stroke: rgb(85,255,85);stroke-opacity: 1.0;stroke-linecap: square;; fill: none" clip-path="url(#4744385419576815639clip-2)"><path d="M 85.26 417.52 L 88.26 423.52 L 82.26 423.52 Z "/></g><line x1="85.26" y1="420.52" x2="191.09" y2="420.52" style="stroke-width: 0.5;stroke: rgb(85,255,85);stroke-opacity: 1.0;stroke-linecap: square;" clip-path="url(#4744385419576815639clip-2)"/><g style="fill: rgb(85,255,85); fill-opacity: 1.0; stroke: none" clip-path="url(#4744385419576815639clip-2)"><path d="M 191.09 417.52 L 194.09 423.52 L 188.09 423.52 Z "/></g><g style="stroke-width: 1.0;stroke: rgb(85,255,85);stroke-opacity: 1.0;stroke-linecap: square;; fill: none" clip-path="url(#4744385419576815639clip-2)"><path d="M 191.09 417.52 L 194.09 423.52 L 188.09 423.52 Z "/></g><line x1="191.09" y1="420.52" x2="296.93" y2="427.68" style="stroke-width: 0.5;stroke: rgb(85,255,85);stroke-opacity: 1.0;stroke-linecap: square;" clip-path="url(#4744385419576815639clip-2)"/><g style="fill: rgb(85,255,85); fill-opacity: 1.0; stroke: none" clip-path="url(#4744385419576815639clip-2)"><path d="M 296.93 424.68 L 299.93 430.68 L 293.93 430.68 Z "/></g><g style="stroke-width: 1.0;stroke: rgb(85,255,85);stroke-opacity: 1.0;stroke-linecap: square;; fill: none" clip-path="url(#4744385419576815639clip-2)"><path d="M 296.93 424.68 L 299.93 430.68 L 293.93 430.68 Z "/></g><line x1="296.93" y1="427.68" x2="402.76" y2="427.68" style="stroke-width: 0.5;stroke: rgb(85,255,85);stroke-opacity: 1.0;stroke-linecap: square;" clip-path="url(#4744385419576815639clip-2)"/><g style="fill: rgb(85,255,85); fill-opacity: 1.0; stroke: none" clip-path="url(#4744385419576815639clip-2)"><path d="M 402.76 424.68 L 405.76 430.68 L 399.76 430.68 Z "/></g><g style="stroke-width: 1.0;stroke: rgb(85,255,85);stroke-opacity: 1.0;stroke-linecap: square;; fill: none" clip-path="url(#4744385419576815639clip-2)"><path d="M 402.76 424.68 L 405.76 430.68 L 399.76 430.68 Z "/></g><line x1="402.76" y1="427.68" x2="508.59" y2="408.84" style="stroke-width: 0.5;stroke: rgb(85,255,85);stroke-opacity: 1.0;stroke-linecap: square;" clip-path="url(#4744385419576815639clip-2)"/><g style="fill: rgb(85,255,85); fill-opacity: 1.0; stroke: none" clip-path="url(#4744385419576815639clip-2)"><path d="M 508.59 405.84 L 511.59 411.84 L 505.59 411.84 Z "/></g><g style="stroke-width: 1.0;stroke: rgb(85,255,85);stroke-opacity: 1.0;stroke-linecap: square;; fill: none" clip-path="url(#4744385419576815639clip-2)"><path d="M 508.59 405.84 L 511.59 411.84 L 505.59 411.84 Z "/></g><line x1="508.59" y1="408.84" x2="614.42" y2="408.84" style="stroke-width: 0.5;stroke: rgb(85,255,85);stroke-opacity: 1.0;stroke-linecap: square;" clip-path="url(#4744385419576815639clip-2)"/><g style="fill: rgb(85,255,85); fill-opacity: 1.0; stroke: none" clip-path="url(#4744385419576815639clip-2)"><path d="M 614.42 405.84 L 617.42 411.84 L 611.42 411.84 Z "/></g><g style="stroke-width: 1.0;stroke: rgb(85,255,85);stroke-opacity: 1.0;stroke-linecap: square;; fill: none" clip-path="url(#4744385419576815639clip-2)"><path d="M 614.42 405.84 L 617.42 411.84 L 611.42 411.84 Z "/></g><g style="fill: rgb(85,85,255); fill-opacity: 1.0; stroke: none" clip-path="url(#4744385419576815639clip-2)"><path d="M 511.59 420.62 C 511.59 422.27 510.24 423.62 508.59 423.62 C 506.93 423.62 505.59 422.27 505.59 420.62 C 505.59 418.96 506.93 417.62 508.59 417.62 C 510.24 417.62 511.59 418.96 511.59 420.62 Z "/></g><g style="stroke-width: 1.0;stroke: rgb(85,85,255);stroke-opacity: 1.0;stroke-linecap: square;; fill: none" clip-path="url(#4744385419576815639clip-2)"><path d="M 511.59 420.62 C 511.59 422.27 510.24 423.62 508.59 423.62 C 506.93 423.62 505.59 422.27 505.59 420.62 C 505.59 418.96 506.93 417.62 508.59 417.62 C 510.24 417.62 511.59 418.96 511.59 420.62 Z "/></g><line x1="508.59" y1="420.62" x2="614.42" y2="420.22" style="stroke-width: 0.5;stroke: rgb(85,85,255);stroke-opacity: 1.0;stroke-linecap: square;" clip-path="url(#4744385419576815639clip-2)"/><g style="fill: rgb(85,85,255); fill-opacity: 1.0; stroke: none" clip-path="url(#4744385419576815639clip-2)"><path d="M 617.42 420.22 C 617.42 421.88 616.08 423.22 614.42 423.22 C 612.76 423.22 611.42 421.88 611.42 420.22 C 611.42 418.57 612.76 417.22 614.42 417.22 C 616.08 417.22 617.42 418.57 617.42 420.22 Z "/></g><g style="stroke-width: 1.0;stroke: rgb(85,85,255);stroke-opacity: 1.0;stroke-linecap: square;; fill: none" clip-path="url(#4744385419576815639clip-2)"><path d="M 617.42 420.22 C 617.42 421.88 616.08 423.22 614.42 423.22 C 612.76 423.22 611.42 421.88 611.42 420.22 C 611.42 418.57 612.76 417.22 614.42 417.22 C 616.08 417.22 617.42 418.57 617.42 420.22 Z "/></g><line x1="614.42" y1="420.22" x2="720.25" y2="420.15" style="stroke-width: 0.5;stroke: rgb(85,85,255);stroke-opacity: 1.0;stroke-linecap: square;" clip-path="url(#4744385419576815639clip-2)"/><g style="fill: rgb(85,85,255); fill-opacity: 1.0; stroke: none" clip-path="url(#4744385419576815639clip-2)"><path d="M 723.25 420.15 C 723.25 421.8 721.91 423.15 720.25 423.15 C 718.59 423.15 717.25 421.8 717.25 420.15 C 717.25 418.49 718.59 417.15 720.25 417.15 C 721.91 417.15 723.25 418.49 723.25 420.15 Z "/></g><g style="stroke-width: 1.0;stroke: rgb(85,85,255);stroke-opacity: 1.0;stroke-linecap: square;; fill: none" clip-path="url(#4744385419576815639clip-2)"><path d="M 723.25 420.15 C 723.25 421.8 721.91 423.15 720.25 423.15 C 718.59 423.15 717.25 421.8 717.25 420.15 C 717.25 418.49 718.59 417.15 720.25 417.15 C 721.91 417.15 723.25 418.49 723.25 420.15 Z "/></g><g style="fill: rgb(255,85,85); fill-opacity: 1.0; stroke: none" clip-path="url(#4744385419576815639clip-2)"><path d="M 82.26 355.36 L 88.26 355.36 L 88.26 361.36 L 82.26 361.36 L 82.26 355.36 Z "/></g><g style="stroke-width: 1.0;stroke: rgb(255,85,85);stroke-opacity: 1.0;stroke-linecap: square;; fill: none" clip-path="url(#4744385419576815639clip-2)"><path d="M 82.26 355.36 L 88.26 355.36 L 88.26 361.36 L 82.26 361.36 L 82.26 355.36 Z "/></g><line x1="85.26" y1="358.36" x2="191.09" y2="358.36" style="stroke-width: 0.5;stroke: rgb(255,85,85);stroke-opacity: 1.0;stroke-linecap: square;" clip-path="url(#4744385419576815639clip-2)"/><g style="fill: rgb(255,85,85); fill-opacity: 1.0; stroke: none" clip-path="url(#4744385419576815639clip-2)"><path d="M 188.09 355.36 L 194.09 355.36 L 194.09 361.36 L 188.09 361.36 L 188.09 355.36 Z "/></g><g style="stroke-width: 1.0;stroke: rgb(255,85,85);stroke-opacity: 1.0;stroke-linecap: square;; fill: none" clip-path="url(#4744385419576815639clip-2)"><path d="M 188.09 355.36 L 194.09 355.36 L 194.09 361.36 L 188.09 361.36 L 188.09 355.36 Z "/></g><line x1="191.09" y1="358.36" x2="296.93" y2="378.55" style="stroke-width: 0.5;stroke: rgb(255,85,85);stroke-opacity: 1.0;stroke-linecap: square;" clip-path="url(#4744385419576815639clip-2)"/><g style="fill: rgb(255,85,85); fill-opacity: 1.0; stroke: none" clip-path="url(#4744385419576815639clip-2)"><path d="M 293.93 375.55 L 299.93 375.55 L 299.93 381.55 L 293.93 381.55 L 293.93 375.55 Z "/></g><g style="stroke-width: 1.0;stroke: rgb(255,85,85);stroke-opacity: 1.0;stroke-linecap: square;; fill: none" clip-path="url(#4744385419576815639clip-2)"><path d="M 293.93 375.55 L 299.93 375.55 L 299.93 381.55 L 293.93 381.55 L 293.93 375.55 Z "/></g><line x1="296.93" y1="378.55" x2="402.76" y2="378.55" style="stroke-width: 0.5;stroke: rgb(255,85,85);stroke-opacity: 1.0;stroke-linecap: square;" clip-path="url(#4744385419576815639clip-2)"/><g style="fill: rgb(255,85,85); fill-opacity: 1.0; stroke: none" clip-path="url(#4744385419576815639clip-2)"><path d="M 399.76 375.55 L 405.76 375.55 L 405.76 381.55 L 399.76 381.55 L 399.76 375.55 Z "/></g><g style="stroke-width: 1.0;stroke: rgb(255,85,85);stroke-opacity: 1.0;stroke-linecap: square;; fill: none" clip-path="url(#4744385419576815639clip-2)"><path d="M 399.76 375.55 L 405.76 375.55 L 405.76 381.55 L 399.76 381.55 L 399.76 375.55 Z "/></g><line x1="402.76" y1="378.55" x2="508.59" y2="389.6" style="stroke-width: 0.5;stroke: rgb(255,85,85);stroke-opacity: 1.0;stroke-linecap: square;" clip-path="url(#4744385419576815639clip-2)"/><g style="fill: rgb(255,85,85); fill-opacity: 1.0; stroke: none" clip-path="url(#4744385419576815639clip-2)"><path d="M 505.59 386.6 L 511.59 386.6 L 511.59 392.6 L 505.59 392.6 L 505.59 386.6 Z "/></g><g style="stroke-width: 1.0;stroke: rgb(255,85,85);stroke-opacity: 1.0;stroke-linecap: square;; fill: none" clip-path="url(#4744385419576815639clip-2)"><path d="M 505.59 386.6 L 511.59 386.6 L 511.59 392.6 L 505.59 392.6 L 505.59 386.6 Z "/></g><line x1="508.59" y1="389.6" x2="614.42" y2="385.95" style="stroke-width: 0.5;stroke: rgb(255,85,85);stroke-opacity: 1.0;stroke-linecap: square;" clip-path="url(#4744385419576815639clip-2)"/><g style="fill: rgb(255,85,85); fill-opacity: 1.0; stroke: none" clip-path="url(#4744385419576815639clip-2)"><path d="M 611.42 382.95 L 617.42 382.95 L 617.42 388.95 L 611.42 388.95 L 611.42 382.95 Z "/></g><g style="stroke-width: 1.0;stroke: rgb(255,85,85);stroke-opacity: 1.0;stroke-linecap: square;; fill: none" clip-path="url(#4744385419576815639clip-2)"><path d="M 611.42 382.95 L 617.42 382.95 L 617.42 388.95 L 611.42 388.95 L 611.42 382.95 Z "/></g><line x1="614.42" y1="385.95" x2="720.25" y2="374.98" style="stroke-width: 0.5;stroke: rgb(255,85,85);stroke-opacity: 1.0;stroke-linecap: square;" clip-path="url(#4744385419576815639clip-2)"/><g style="fill: rgb(255,85,85); fill-opacity: 1.0; stroke: none" clip-path="url(#4744385419576815639clip-2)"><path d="M 717.25 371.98 L 723.25 371.98 L 723.25 377.98 L 717.25 377.98 L 717.25 371.98 Z "/></g><g style="stroke-width: 1.0;stroke: rgb(255,85,85);stroke-opacity: 1.0;stroke-linecap: square;; fill: none" clip-path="url(#4744385419576815639clip-2)"><path d="M 717.25 371.98 L 723.25 371.98 L 723.25 377.98 L 717.25 377.98 L 717.25 371.98 Z "/></g><line x1="53.51" y1="29" x2="752" y2="29" style="stroke-width: 2.0;stroke: rgb(128,128,128);stroke-opacity: 0.8;stroke-linecap: square;" clip-path="url(#4744385419576815639clip-2)"/><rect x="53.51" y="29" width="698.49" height="462.01" style="stroke-width: 0.5;stroke: rgb(128,128,128);stroke-opacity: 1.0;stroke-linecap: square;; fill: none" clip-path="url(#4744385419576815639clip-0)"/></svg>
