<!DOCTYPE svg PUBLIC "-//W3C//DTD SVG 1.1//EN" "http://www.w3.org/Graphics/SVG/1.1/DTD/svg11.dtd">
<svg xmlns="http://www.w3.org/2000/svg" xmlns:xlink="http://www.w3.org/1999/xlink" xmlns:jfreesvg="http://www.jfree.org/jfreesvg/svg" width="800" height="600" text-rendering="auto" shape-rendering="auto">
<defs><clipPath id="4744385419576815639clip-0"><path d="M 0 0 L 800 0 L 800 600 L 0 600 L 0 0 Z "/></clipPath>
<clipPath id="4744385419576815639clip-1"><path d="M 268 253 L 268 1053 L -332 1053 L -332 253 L 268 253 Z "/></clipPath>
<clipPath id="4744385419576815639clip-2"><path d="M 48 21 L 48 500 L 768 500 L 768 21 Z "/></clipPath>
</defs>
<rect x="0" y="0" width="800" height="600" style="fill: rgb(255,255,255); fill-opacity: 1.0" clip-path="url(#4744385419576815639clip-0)"/><g ><text x="152" y="9.96" style="fill: rgb(0,0,0); fill-opacity: 1.0; font-family: Liberation Sans; font-size: 11px;" clip-path="url(#4744385419576815639clip-0)">SAMPLE SIZE at FAKE2-FAKE2 for predictions of DISCHARGE with a time scale of [3 HOURS, MEAN]</text></g><rect x="-9" y="544" width="788" height="55" style="fill: rgb(255,255,255); fill-opacity: 1.0" clip-path="url(#4744385419576815639clip-0)"/><g style="fill: rgb(0,0,0); fill-opacity: 1.0; stroke: none" clip-path="url(#4744385419576815639clip-0)"><path d="M 23 552.5 L 23 552.5"/></g><g ><text x="27" y="555.05" style="fill: rgb(64,64,64); fill-opacity: 1.0; font-family: Liberation Sans; font-size: 10px;" clip-path="url(#4744385419576815639clip-0)">Lead time window [HOURS], Valid time window [UTC], Threshold [CMS]:</text></g><g style="stroke-width: 1.0;stroke: rgb(255,85,85);stroke-opacity: 1.0;stroke-linecap: square;stroke-linejoin: bevel;shape-rendering:geometricPrecision;; fill: none" clip-path="url(#4744385419576815639clip-0)"><path d="M 355 552.5 L 369 552.5"/></g><g style="fill: rgb(255,85,85); fill-opacity: 1.0; stroke: none" clip-path="url(#4744385419576815639clip-0)"><path d="M 359 549.5 L 365 549.5 L 365 555.5 L 359 555.5 L 359 549.5 Z "/></g><g style="stroke-width: 1.0;stroke: rgb(255,85,85);stroke-opacity: 1.0;stroke-linecap: square;shape-rendering:geometricPrecision;; fill: none" clip-path="url(#4744385419576815639clip-0)"><path d="M 359 549.5 L 365 549.5 L 365 555.5 L 359 555.5 L 359 549.5 Z "/></g><g ><text x="373" y="555.05" style="fill: rgb(64,64,64); fill-opacity: 1.0; font-family: Liberation Sans; font-size: 10px;" clip-path="url(#4744385419576815639clip-0)">(0,23], (2551-03-17T00:00:00,2551-03-19T08:00:00], All data</text></g><g style="stroke-width: 1.0;stroke: rgb(85,85,255);stroke-opacity: 1.0;stroke-linecap: square;stroke-linejoin: bevel;shape-rendering:geometricPrecision;; fill: none" clip-path="url(#4744385419576815639clip-0)"><path d="M 23 571.5 L 37 571.5"/></g><g style="fill: rgb(85,85,255); fill-opacity: 1.0; stroke: none" clip-path="url(#4744385419576815639clip-0)"><path d="M 33 571.5 C 33 573.16 31.66 574.5 30 574.5 C 28.34 574.5 27 573.16 27 571.5 C 27 569.84 28.34 568.5 30 568.5 C 31.66 568.5 33 569.84 33 571.5 Z "/></g><g style="stroke-width: 1.0;stroke: rgb(85,85,255);stroke-opacity: 1.0;stroke-linecap: square;shape-rendering:geometricPrecision;; fill: none" clip-path="url(#4744385419576815639clip-0)"><path d="M 33 571.5 C 33 573.16 31.66 574.5 30 574.5 C 28.34 574.5 27 573.16 27 571.5 C 27 569.84 28.34 568.5 30 568.5 C 31.66 568.5 33 569.84 33 571.5 Z "/></g><g ><text x="41" y="574.05" style="fill: rgb(64,64,64); fill-opacity: 1.0; font-family: Liberation Sans; font-size: 10px;" clip-path="url(#4744385419576815639clip-0)">(0,23], (2551-03-19T08:00:00,2551-03-21T16:00:00], All data</text></g><g style="stroke-width: 1.0;stroke: rgb(85,255,85);stroke-opacity: 1.0;stroke-linecap: square;stroke-linejoin: bevel;shape-rendering:geometricPrecision;; fill: none" clip-path="url(#4744385419576815639clip-0)"><path d="M 318 571.5 L 332 571.5"/></g><g style="fill: rgb(85,255,85); fill-opacity: 1.0; stroke: none" clip-path="url(#4744385419576815639clip-0)"><path d="M 325 568.5 L 328 574.5 L 322 574.5 Z "/></g><g style="stroke-width: 1.0;stroke: rgb(85,255,85);stroke-opacity: 1.0;stroke-linecap: square;shape-rendering:geometricPrecision;; fill: none" clip-path="url(#4744385419576815639clip-0)"><path d="M 325 568.5 L 328 574.5 L 322 574.5 Z "/></g><g ><text x="336" y="574.05" style="fill: rgb(64,64,64); fill-opacity: 1.0; font-family: Liberation Sans; font-size: 10px;" clip-path="url(#4744385419576815639clip-0)">(17,40], (2551-03-17T00:00:00,2551-03-19T08:00:00], All data</text></g><g style="stroke-width: 1.0;stroke: rgb(255,85,255);stroke-opacity: 1.0;stroke-linecap: square;stroke-linejoin: bevel;shape-rendering:geometricPrecision;; fill: none" clip-path="url(#4744385419576815639clip-0)"><path d="M 23 590.5 L 37 590.5"/></g><g style="fill: rgb(255,85,255); fill-opacity: 1.0; stroke: none" clip-path="url(#4744385419576815639clip-0)"><path d="M 30 587.5 L 33 590.5 L 30 593.5 L 27 590.5 Z "/></g><g style="stroke-width: 1.0;stroke: rgb(255,85,255);stroke-opacity: 1.0;stroke-linecap: square;shape-rendering:geometricPrecision;; fill: none" clip-path="url(#4744385419576815639clip-0)"><path d="M 30 587.5 L 33 590.5 L 30 593.5 L 27 590.5 Z "/></g><g ><text x="41" y="593.05" style="fill: rgb(64,64,64); fill-opacity: 1.0; font-family: Liberation Sans; font-size: 10px;" clip-path="url(#4744385419576815639clip-0)">(17,40], (2551-03-19T08:00:00,2551-03-21T16:00:00], All data</text></g><rect x="48" y="21" width="720" height="479" style="fill: rgb(255,255,255); fill-opacity: 1.0" clip-path="url(#4744385419576815639clip-0)"/><g ><text x="19.6" y="518.55" style="fill: rgb(64,64,64); fill-opacity: 1.0; font-family: Liberation Sans; font-size: 10px;" clip-path="url(#4744385419576815639clip-0)">2551-03-17+06</text></g><line x1="53.6" y1="506" x2="53.6" y2="504" style="stroke-width: 0.5;stroke: rgb(128,128,128);stroke-opacity: 1.0;stroke-linecap: square;shape-rendering:crispEdges;" clip-path="url(#4744385419576815639clip-0)"/><g ><text x="118.51" y="518.55" style="fill: rgb(64,64,64); fill-opacity: 1.0; font-family: Liberation Sans; font-size: 10px;" clip-path="url(#4744385419576815639clip-0)">2551-03-17+12</text></g><line x1="152.51" y1="506" x2="152.51" y2="504" style="stroke-width: 0.5;stroke: rgb(128,128,128);stroke-opacity: 1.0;stroke-linecap: square;shape-rendering:crispEdges;" clip-path="url(#4744385419576815639clip-0)"/><g ><text x="217.41" y="518.55" style="fill: rgb(64,64,64); fill-opacity: 1.0; font-family: Liberation Sans; font-size: 10px;" clip-path="url(#4744385419576815639clip-0)">2551-03-17+18</text></g><line x1="251.41" y1="506" x2="251.41" y2="504" style="stroke-width: 0.5;stroke: rgb(128,128,128);stroke-opacity: 1.0;stroke-linecap: square;shape-rendering:crispEdges;" clip-path="url(#4744385419576815639clip-0)"/><g ><text x="316.31" y="518.55" style="fill: rgb(64,64,64); fill-opacity: 1.0; font-family: Liberation Sans; font-size: 10px;" clip-path="url(#4744385419576815639clip-0)">2551-03-18+00</text></g><line x1="350.31" y1="506" x2="350.31" y2="504" style="stroke-width: 0.5;stroke: rgb(128,128,128);stroke-opacity: 1.0;stroke-linecap: square;shape-rendering:crispEdges;" clip-path="url(#4744385419576815639clip-0)"/><g ><text x="415.21" y="518.55" style="fill: rgb(64,64,64); fill-opacity: 1.0; font-family: Liberation Sans; font-size: 10px;" clip-path="url(#4744385419576815639clip-0)">2551-03-18+06</text></g><line x1="449.21" y1="506" x2="449.21" y2="504" style="stroke-width: 0.5;stroke: rgb(128,128,128);stroke-opacity: 1.0;stroke-linecap: square;shape-rendering:crispEdges;" clip-path="url(#4744385419576815639clip-0)"/><g ><text x="514.11" y="518.55" style="fill: rgb(64,64,64); fill-opacity: 1.0; font-family: Liberation Sans; font-size: 10px;" clip-path="url(#4744385419576815639clip-0)">2551-03-18+12</text></g><line x1="548.11" y1="506" x2="548.11" y2="504" style="stroke-width: 0.5;stroke: rgb(128,128,128);stroke-opacity: 1.0;stroke-linecap: square;shape-rendering:crispEdges;" clip-path="url(#4744385419576815639clip-0)"/><g ><text x="613.01" y="518.55" style="fill: rgb(64,64,64); fill-opacity: 1.0; font-family: Liberation Sans; font-size: 10px;" clip-path="url(#4744385419576815639clip-0)">2551-03-18+18</text></g><line x1="647.01" y1="506" x2="647.01" y2="504" style="stroke-width: 0.5;stroke: rgb(128,128,128);stroke-opacity: 1.0;stroke-linecap: square;shape-rendering:crispEdges;" clip-path="url(#4744385419576815639clip-0)"/><g ><text x="711.91" y="518.55" style="fill: rgb(64,64,64); fill-opacity: 1.0; font-family: Liberation Sans; font-size: 10px;" clip-path="url(#4744385419576815639clip-0)">2551-03-19+00</text></g><line x1="745.91" y1="506" x2="745.91" y2="504" style="stroke-width: 0.5;stroke: rgb(128,128,128);stroke-opacity: 1.0;stroke-linecap: square;shape-rendering:crispEdges;" clip-path="url(#4744385419576815639clip-0)"/><g ><text x="287" y="533.05" style="fill: rgb(64,64,64); fill-opacity: 1.0; font-family: Liberation Sans; font-size: 10px;" clip-path="url(#4744385419576815639clip-0)">TIME AT CENTER OF ISSUED TIME WINDOW [UTC]</text></g><g ><text x="24" y="504.05" style="fill: rgb(64,64,64); fill-opacity: 1.0; font-family: Liberation Sans; font-size: 10px;" clip-path="url(#4744385419576815639clip-0)">0.0</text></g><line x1="42" y1="500" x2="44" y2="500" style="stroke-width: 0.5;stroke: rgb(128,128,128);stroke-opacity: 1.0;stroke-linecap: square;shape-rendering:crispEdges;" clip-path="url(#4744385419576815639clip-0)"/><g ><text x="24" y="483.32" style="fill: rgb(64,64,64); fill-opacity: 1.0; font-family: Liberation Sans; font-size: 10px;" clip-path="url(#4744385419576815639clip-0)">0.5</text></g><line x1="42" y1="479.26" x2="44" y2="479.26" style="stroke-width: 0.5;stroke: rgb(128,128,128);stroke-opacity: 1.0;stroke-linecap: square;shape-rendering:crispEdges;" clip-path="url(#4744385419576815639clip-0)"/><g ><text x="24" y="462.58" style="fill: rgb(64,64,64); fill-opacity: 1.0; font-family: Liberation Sans; font-size: 10px;" clip-path="url(#4744385419576815639clip-0)">1.0</text></g><line x1="42" y1="458.53" x2="44" y2="458.53" style="stroke-width: 0.5;stroke: rgb(128,128,128);stroke-opacity: 1.0;stroke-linecap: square;shape-rendering:crispEdges;" clip-path="url(#4744385419576815639clip-0)"/><g ><text x="24" y="441.85" style="fill: rgb(64,64,64); fill-opacity: 1.0; font-family: Liberation Sans; font-size: 10px;" clip-path="url(#4744385419576815639clip-0)">1.5</text></g><line x1="42" y1="437.79" x2="44" y2="437.79" style="stroke-width: 0.5;stroke: rgb(128,128,128);stroke-opacity: 1.0;stroke-linecap: square;shape-rendering:crispEdges;" clip-path="url(#4744385419576815639clip-0)"/><g ><text x="24" y="421.11" style="fill: rgb(64,64,64); fill-opacity: 1.0; font-family: Liberation Sans; font-size: 10px;" clip-path="url(#4744385419576815639clip-0)">2.0</text></g><line x1="42" y1="417.06" x2="44" y2="417.06" style="stroke-width: 0.5;stroke: rgb(128,128,128);stroke-opacity: 1.0;stroke-linecap: square;shape-rendering:crispEdges;" clip-path="url(#4744385419576815639clip-0)"/><g ><text x="24" y="400.37" style="fill: rgb(64,64,64); fill-opacity: 1.0; font-family: Liberation Sans; font-size: 10px;" clip-path="url(#4744385419576815639clip-0)">2.5</text></g><line x1="42" y1="396.32" x2="44" y2="396.32" style="stroke-width: 0.5;stroke: rgb(128,128,128);stroke-opacity: 1.0;stroke-linecap: square;shape-rendering:crispEdges;" clip-path="url(#4744385419576815639clip-0)"/><g ><text x="24" y="379.64" style="fill: rgb(64,64,64); fill-opacity: 1.0; font-family: Liberation Sans; font-size: 10px;" clip-path="url(#4744385419576815639clip-0)">3.0</text></g><line x1="42" y1="375.58" x2="44" y2="375.58" style="stroke-width: 0.5;stroke: rgb(128,128,128);stroke-opacity: 1.0;stroke-linecap: square;shape-rendering:crispEdges;" clip-path="url(#4744385419576815639clip-0)"/><g ><text x="24" y="358.9" style="fill: rgb(64,64,64); fill-opacity: 1.0; font-family: Liberation Sans; font-size: 10px;" clip-path="url(#4744385419576815639clip-0)">3.5</text></g><line x1="42" y1="354.85" x2="44" y2="354.85" style="stroke-width: 0.5;stroke: rgb(128,128,128);stroke-opacity: 1.0;stroke-linecap: square;shape-rendering:crispEdges;" clip-path="url(#4744385419576815639clip-0)"/><g ><text x="24" y="338.17" style="fill: rgb(64,64,64); fill-opacity: 1.0; font-family: Liberation Sans; font-size: 10px;" clip-path="url(#4744385419576815639clip-0)">4.0</text></g><line x1="42" y1="334.11" x2="44" y2="334.11" style="stroke-width: 0.5;stroke: rgb(128,128,128);stroke-opacity: 1.0;stroke-linecap: square;shape-rendering:crispEdges;" clip-path="url(#4744385419576815639clip-0)"/><g ><text x="24" y="317.43" style="fill: rgb(64,64,64); fill-opacity: 1.0; font-family: Liberation Sans; font-size: 10px;" clip-path="url(#4744385419576815639clip-0)">4.5</text></g><line x1="42" y1="313.38" x2="44" y2="313.38" style="stroke-width: 0.5;stroke: rgb(128,128,128);stroke-opacity: 1.0;stroke-linecap: square;shape-rendering:crispEdges;" clip-path="url(#4744385419576815639clip-0)"/><g ><text x="24" y="296.69" style="fill: rgb(64,64,64); fill-opacity: 1.0; font-family: Liberation Sans; font-size: 10px;" clip-path="url(#4744385419576815639clip-0)">5.0</text></g><line x1="42" y1="292.64" x2="44" y2="292.64" style="stroke-width: 0.5;stroke: rgb(128,128,128);stroke-opacity: 1.0;stroke-linecap: square;shape-rendering:crispEdges;" clip-path="url(#4744385419576815639clip-0)"/><g ><text x="24" y="275.96" style="fill: rgb(64,64,64); fill-opacity: 1.0; font-family: Liberation Sans; font-size: 10px;" clip-path="url(#4744385419576815639clip-0)">5.5</text></g><line x1="42" y1="271.9" x2="44" y2="271.9" style="stroke-width: 0.5;stroke: rgb(128,128,128);stroke-opacity: 1.0;stroke-linecap: square;shape-rendering:crispEdges;" clip-path="url(#4744385419576815639clip-0)"/><g ><text x="24" y="255.22" style="fill: rgb(64,64,64); fill-opacity: 1.0; font-family: Liberation Sans; font-size: 10px;" clip-path="url(#4744385419576815639clip-0)">6.0</text></g><line x1="42" y1="251.17" x2="44" y2="251.17" style="stroke-width: 0.5;stroke: rgb(128,128,128);stroke-opacity: 1.0;stroke-linecap: square;shape-rendering:crispEdges;" clip-path="url(#4744385419576815639clip-0)"/><g ><text x="24" y="234.49" style="fill: rgb(64,64,64); fill-opacity: 1.0; font-family: Liberation Sans; font-size: 10px;" clip-path="url(#4744385419576815639clip-0)">6.5</text></g><line x1="42" y1="230.43" x2="44" y2="230.43" style="stroke-width: 0.5;stroke: rgb(128,128,128);stroke-opacity: 1.0;stroke-linecap: square;shape-rendering:crispEdges;" clip-path="url(#4744385419576815639clip-0)"/><g ><text x="24" y="213.75" style="fill: rgb(64,64,64); fill-opacity: 1.0; font-family: Liberation Sans; font-size: 10px;" clip-path="url(#4744385419576815639clip-0)">7.0</text></g><line x1="42" y1="209.7" x2="44" y2="209.7" style="stroke-width: 0.5;stroke: rgb(128,128,128);stroke-opacity: 1.0;stroke-linecap: square;shape-rendering:crispEdges;" clip-path="url(#4744385419576815639clip-0)"/><g ><text x="24" y="193.01" style="fill: rgb(64,64,64); fill-opacity: 1.0; font-family: Liberation Sans; font-size: 10px;" clip-path="url(#4744385419576815639clip-0)">7.5</text></g><line x1="42" y1="188.96" x2="44" y2="188.96" style="stroke-width: 0.5;stroke: rgb(128,128,128);stroke-opacity: 1.0;stroke-linecap: square;shape-rendering:crispEdges;" clip-path="url(#4744385419576815639clip-0)"/><g ><text x="24" y="172.28" style="fill: rgb(64,64,64); fill-opacity: 1.0; font-family: Liberation Sans; font-size: 10px;" clip-path="url(#4744385419576815639clip-0)">8.0</text></g><line x1="42" y1="168.23" x2="44" y2="168.23" style="stroke-width: 0.5;stroke: rgb(128,128,128);stroke-opacity: 1.0;stroke-linecap: square;shape-rendering:crispEdges;" clip-path="url(#4744385419576815639clip-0)"/><g ><text x="24" y="151.54" style="fill: rgb(64,64,64); fill-opacity: 1.0; font-family: Liberation Sans; font-size: 10px;" clip-path="url(#4744385419576815639clip-0)">8.5</text></g><line x1="42" y1="147.49" x2="44" y2="147.49" style="stroke-width: 0.5;stroke: rgb(128,128,128);stroke-opacity: 1.0;stroke-linecap: square;shape-rendering:crispEdges;" clip-path="url(#4744385419576815639clip-0)"/><g ><text x="24" y="130.81" style="fill: rgb(64,64,64); fill-opacity: 1.0; font-family: Liberation Sans; font-size: 10px;" clip-path="url(#4744385419576815639clip-0)">9.0</text></g><line x1="42" y1="126.75" x2="44" y2="126.75" style="stroke-width: 0.5;stroke: rgb(128,128,128);stroke-opacity: 1.0;stroke-linecap: square;shape-rendering:crispEdges;" clip-path="url(#4744385419576815639clip-0)"/><g ><text x="24" y="110.07" style="fill: rgb(64,64,64); fill-opacity: 1.0; font-family: Liberation Sans; font-size: 10px;" clip-path="url(#4744385419576815639clip-0)">9.5</text></g><line x1="42" y1="106.02" x2="44" y2="106.02" style="stroke-width: 0.5;stroke: rgb(128,128,128);stroke-opacity: 1.0;stroke-linecap: square;shape-rendering:crispEdges;" clip-path="url(#4744385419576815639clip-0)"/><g ><text x="19" y="89.34" style="fill: rgb(64,64,64); fill-opacity: 1.0; font-family: Liberation Sans; font-size: 10px;" clip-path="url(#4744385419576815639clip-0)">10.0</text></g><line x1="42" y1="85.28" x2="44" y2="85.28" style="stroke-width: 0.5;stroke: rgb(128,128,128);stroke-opacity: 1.0;stroke-linecap: square;shape-rendering:crispEdges;" clip-path="url(#4744385419576815639clip-0)"/><g ><text x="19" y="68.6" style="fill: rgb(64,64,64); fill-opacity: 1.0; font-family: Liberation Sans; font-size: 10px;" clip-path="url(#4744385419576815639clip-0)">10.5</text></g><line x1="42" y1="64.55" x2="44" y2="64.55" style="stroke-width: 0.5;stroke: rgb(128,128,128);stroke-opacity: 1.0;stroke-linecap: square;shape-rendering:crispEdges;" clip-path="url(#4744385419576815639clip-0)"/><g ><text x="19" y="47.86" style="fill: rgb(64,64,64); fill-opacity: 1.0; font-family: Liberation Sans; font-size: 10px;" clip-path="url(#4744385419576815639clip-0)">11.0</text></g><line x1="42" y1="43.81" x2="44" y2="43.81" style="stroke-width: 0.5;stroke: rgb(128,128,128);stroke-opacity: 1.0;stroke-linecap: square;shape-rendering:crispEdges;" clip-path="url(#4744385419576815639clip-0)"/><g ><text x="19" y="27.13" style="fill: rgb(64,64,64); fill-opacity: 1.0; font-family: Liberation Sans; font-size: 10px;" clip-path="url(#4744385419576815639clip-0)">11.5</text></g><line x1="42" y1="23.07" x2="44" y2="23.07" style="stroke-width: 0.5;stroke: rgb(128,128,128);stroke-opacity: 1.0;stroke-linecap: square;shape-rendering:crispEdges;" clip-path="url(#4744385419576815639clip-0)"/><g style="fill: rgb(64,64,64); fill-opacity: 1.0; stroke: none" transform="matrix(0,-1,1,0,-253,268)" clip-path="url(#4744385419576815639clip-1)"><path d="M -40.78 262.65 Q -40.78 263.08 -40.95 263.46 Q -41.12 263.82 -41.48 264.08 Q -41.83 264.35 -42.36 264.51 Q -42.89 264.65 -43.62 264.65 Q -44.92 264.65 -45.64 264.21 Q -46.34 263.76 -46.55 262.9 L -45.64 262.73 Q -45.58 262.99 -45.44 263.21 Q -45.3 263.43 -45.06 263.58 Q -44.81 263.74 -44.45 263.83 Q -44.09 263.93 -43.59 263.93 Q -43.19 263.93 -42.84 263.87 Q -42.48 263.79 -42.23 263.65 Q -41.98 263.49 -41.86 263.26 Q -41.72 263.02 -41.72 262.71 Q -41.72 262.37 -41.88 262.16 Q -42.02 261.94 -42.3 261.82 Q -42.58 261.68 -42.97 261.58 Q -43.34 261.49 -43.81 261.38 Q -44.11 261.32 -44.41 261.24 Q -44.69 261.16 -44.95 261.07 Q -45.22 260.96 -45.45 260.82 Q -45.69 260.68 -45.86 260.48 Q -46.03 260.27 -46.12 260.02 Q -46.22 259.76 -46.22 259.41 Q -46.22 258.93 -46.03 258.58 Q -45.83 258.23 -45.48 258.01 Q -45.12 257.77 -44.66 257.68 Q -44.17 257.57 -43.61 257.57 Q -42.97 257.57 -42.52 257.68 Q -42.06 257.77 -41.75 257.98 Q -41.44 258.18 -41.25 258.48 Q -41.06 258.76 -40.95 259.15 L -41.88 259.32 Q -41.94 259.07 -42.06 258.88 Q -42.19 258.68 -42.41 258.55 Q -42.61 258.41 -42.92 258.35 Q -43.22 258.27 -43.62 258.27 Q -44.09 258.27 -44.42 258.37 Q -44.75 258.44 -44.95 258.6 Q -45.14 258.74 -45.23 258.94 Q -45.31 259.13 -45.31 259.37 Q -45.31 259.66 -45.16 259.87 Q -45 260.07 -44.75 260.21 Q -44.48 260.33 -44.14 260.43 Q -43.78 260.51 -43.39 260.6 Q -43.08 260.66 -42.77 260.74 Q -42.45 260.82 -42.17 260.93 Q -41.88 261.02 -41.62 261.16 Q -41.38 261.3 -41.19 261.52 Q -41 261.73 -40.89 262.01 Q -40.78 262.27 -40.78 262.65 Z  M -34.63 264.55 L -35.42 262.54 L -38.55 262.54 L -39.35 264.55 L -40.31 264.55 L -37.5 257.68 L -36.44 257.68 L -33.67 264.55 L -34.63 264.55 Z  M -36.58 259.54 Q -36.66 259.35 -36.74 259.15 Q -36.8 258.94 -36.86 258.79 Q -36.91 258.62 -36.96 258.51 Q -36.99 258.4 -36.99 258.38 Q -37 258.4 -37.03 258.52 Q -37.06 258.63 -37.13 258.8 Q -37.17 258.96 -37.25 259.16 Q -37.31 259.35 -37.39 259.55 L -38.27 261.82 L -35.69 261.82 L -36.58 259.54 Z  M -26.99 264.55 L -26.99 259.96 Q -26.99 259.71 -26.99 259.46 Q -26.97 259.19 -26.97 258.98 Q -26.96 258.73 -26.94 258.49 Q -27.02 258.74 -27.08 258.99 Q -27.14 259.19 -27.22 259.44 Q -27.3 259.68 -27.38 259.87 L -29.16 264.55 L -29.8 264.55 L -31.61 259.87 Q -31.64 259.79 -31.68 259.69 Q -31.71 259.6 -31.74 259.49 Q -31.77 259.38 -31.82 259.27 Q -31.85 259.15 -31.88 259.04 Q -31.97 258.77 -32.05 258.49 Q -32.04 258.77 -32.04 259.04 Q -32.02 259.27 -32.02 259.52 Q -32 259.77 -32 259.96 L -32 264.55 L -32.83 264.55 L -32.83 257.68 L -31.61 257.68 L -29.79 262.44 Q -29.75 262.54 -29.71 262.69 Q -29.64 262.85 -29.61 263.02 Q -29.57 263.18 -29.54 263.32 Q -29.49 263.46 -29.47 263.54 Q -29.46 263.46 -29.43 263.32 Q -29.38 263.16 -29.33 263.01 Q -29.29 262.85 -29.24 262.69 Q -29.18 262.54 -29.14 262.44 L -27.35 257.68 L -26.14 257.68 L -26.14 264.55 L -26.99 264.55 Z  M -19.19 259.74 Q -19.19 260.19 -19.35 260.58 Q -19.49 260.98 -19.78 261.26 Q -20.08 261.54 -20.53 261.71 Q -20.97 261.87 -21.55 261.87 L -23.58 261.87 L -23.58 264.55 L -24.5 264.55 L -24.5 257.68 L -21.61 257.68 Q -21 257.68 -20.55 257.83 Q -20.1 257.98 -19.8 258.24 Q -19.49 258.51 -19.35 258.9 Q -19.19 259.27 -19.19 259.74 Z  M -20.13 259.76 Q -20.13 259.1 -20.53 258.76 Q -20.92 258.41 -21.72 258.41 L -23.58 258.41 L -23.58 261.13 L -21.69 261.13 Q -20.88 261.13 -20.5 260.79 Q -20.13 260.43 -20.13 259.76 Z  M -17.83 264.55 L -17.83 257.68 L -16.91 257.68 L -16.91 263.79 L -13.43 263.79 L -13.43 264.55 L -17.83 264.55 Z  M -12.27 264.55 L -12.27 257.68 L -7.05 257.68 L -7.05 258.43 L -11.35 258.43 L -11.35 260.65 L -7.35 260.65 L -7.35 261.4 L -11.35 261.4 L -11.35 263.79 L -6.86 263.79 L -6.86 264.55 L -12.27 264.55 Z  M 2.57 262.65 Q 2.57 263.08 2.4 263.46 Q 2.22 263.82 1.87 264.08 Q 1.52 264.35 0.99 264.51 Q 0.46 264.65 -0.28 264.65 Q -1.57 264.65 -2.29 264.21 Q -2.99 263.76 -3.2 262.9 L -2.29 262.73 Q -2.23 262.99 -2.09 263.21 Q -1.95 263.43 -1.71 263.58 Q -1.46 263.74 -1.1 263.83 Q -0.74 263.93 -0.24 263.93 Q 0.16 263.93 0.51 263.87 Q 0.87 263.79 1.12 263.65 Q 1.37 263.49 1.49 263.26 Q 1.63 263.02 1.63 262.71 Q 1.63 262.37 1.47 262.16 Q 1.33 261.94 1.05 261.82 Q 0.77 261.68 0.38 261.58 Q 0.01 261.49 -0.46 261.38 Q -0.76 261.32 -1.06 261.24 Q -1.34 261.16 -1.6 261.07 Q -1.87 260.96 -2.1 260.82 Q -2.34 260.68 -2.51 260.48 Q -2.68 260.27 -2.78 260.02 Q -2.87 259.76 -2.87 259.41 Q -2.87 258.93 -2.68 258.58 Q -2.48 258.23 -2.13 258.01 Q -1.78 257.77 -1.31 257.68 Q -0.82 257.57 -0.26 257.57 Q 0.38 257.57 0.83 257.68 Q 1.29 257.77 1.6 257.98 Q 1.91 258.18 2.1 258.48 Q 2.29 258.76 2.4 259.15 L 1.47 259.32 Q 1.41 259.07 1.29 258.88 Q 1.16 258.68 0.94 258.55 Q 0.74 258.41 0.43 258.35 Q 0.13 258.27 -0.28 258.27 Q -0.74 258.27 -1.07 258.37 Q -1.4 258.44 -1.6 258.6 Q -1.79 258.74 -1.88 258.94 Q -1.96 259.13 -1.96 259.37 Q -1.96 259.66 -1.81 259.87 Q -1.65 260.07 -1.4 260.21 Q -1.13 260.33 -0.79 260.43 Q -0.43 260.51 -0.04 260.6 Q 0.27 260.66 0.58 260.74 Q 0.9 260.82 1.18 260.93 Q 1.47 261.02 1.72 261.16 Q 1.97 261.3 2.16 261.52 Q 2.35 261.73 2.46 262.01 Q 2.57 262.27 2.57 262.65 Z  M 3.94 264.55 L 3.94 257.68 L 4.88 257.68 L 4.88 264.55 L 3.94 264.55 Z  M 11.59 264.55 L 6.11 264.55 L 6.11 263.85 L 10.3 258.43 L 6.47 258.43 L 6.47 257.68 L 11.36 257.68 L 11.36 258.35 L 7.17 263.79 L 11.59 263.79 L 11.59 264.55 Z  M 12.73 264.55 L 12.73 257.68 L 17.95 257.68 L 17.95 258.43 L 13.66 258.43 L 13.66 260.65 L 17.66 260.65 L 17.66 261.4 L 13.66 261.4 L 13.66 263.79 L 18.14 263.79 L 18.14 264.55 L 12.73 264.55 Z  M 22.07 266.63 L 22.07 257.3 L 24.06 257.3 L 24.06 257.94 L 22.92 257.94 L 22.92 266.01 L 24.06 266.01 L 24.06 266.63 L 22.07 266.63 Z  M 28.01 258.33 Q 27.41 258.33 26.96 258.54 Q 26.51 258.73 26.2 259.08 Q 25.9 259.44 25.74 259.96 Q 25.59 260.46 25.59 261.08 Q 25.59 261.69 25.76 262.21 Q 25.93 262.73 26.24 263.1 Q 26.55 263.48 27.01 263.68 Q 27.46 263.88 28.04 263.88 Q 28.45 263.88 28.77 263.79 Q 29.1 263.68 29.37 263.49 Q 29.63 263.29 29.84 263.04 Q 30.05 262.77 30.21 262.46 L 30.98 262.83 Q 30.79 263.23 30.51 263.55 Q 30.24 263.88 29.87 264.13 Q 29.51 264.37 29.04 264.51 Q 28.57 264.65 27.99 264.65 Q 27.16 264.65 26.52 264.38 Q 25.9 264.12 25.48 263.65 Q 25.05 263.16 24.85 262.51 Q 24.65 261.85 24.65 261.08 Q 24.65 260.27 24.87 259.63 Q 25.09 258.98 25.51 258.52 Q 25.95 258.07 26.57 257.82 Q 27.2 257.57 27.99 257.57 Q 29.09 257.57 29.82 258.01 Q 30.57 258.43 30.91 259.27 L 30.02 259.57 Q 29.93 259.32 29.76 259.1 Q 29.6 258.88 29.35 258.71 Q 29.1 258.54 28.76 258.44 Q 28.43 258.33 28.01 258.33 Z  M 38.65 261.08 Q 38.65 261.88 38.42 262.55 Q 38.2 263.21 37.75 263.68 Q 37.31 264.15 36.67 264.4 Q 36.04 264.65 35.23 264.65 Q 34.39 264.65 33.75 264.38 Q 33.1 264.12 32.68 263.65 Q 32.26 263.16 32.04 262.51 Q 31.82 261.85 31.82 261.08 Q 31.82 260.27 32.04 259.63 Q 32.28 258.98 32.71 258.52 Q 33.15 258.07 33.78 257.82 Q 34.42 257.57 35.25 257.57 Q 36.07 257.57 36.7 257.82 Q 37.34 258.07 37.76 258.54 Q 38.2 258.99 38.42 259.65 Q 38.65 260.29 38.65 261.08 Z  M 37.7 261.08 Q 37.7 260.46 37.54 259.96 Q 37.39 259.44 37.07 259.08 Q 36.76 258.73 36.31 258.54 Q 35.85 258.33 35.25 258.33 Q 34.64 258.33 34.17 258.54 Q 33.7 258.73 33.39 259.08 Q 33.09 259.44 32.93 259.96 Q 32.78 260.46 32.78 261.08 Q 32.78 261.69 32.93 262.21 Q 33.09 262.73 33.4 263.1 Q 33.71 263.48 34.17 263.69 Q 34.64 263.9 35.23 263.9 Q 35.89 263.9 36.34 263.69 Q 36.81 263.48 37.1 263.1 Q 37.42 262.73 37.56 262.21 Q 37.7 261.69 37.7 261.08 Z  M 42.7 264.65 Q 42.13 264.65 41.62 264.51 Q 41.12 264.35 40.73 264.04 Q 40.35 263.71 40.12 263.23 Q 39.9 262.73 39.9 262.05 L 39.9 257.68 L 40.84 257.68 L 40.84 261.98 Q 40.84 262.49 40.98 262.87 Q 41.12 263.23 41.37 263.46 Q 41.62 263.68 41.95 263.79 Q 42.29 263.9 42.7 263.9 Q 43.1 263.9 43.45 263.79 Q 43.8 263.68 44.07 263.44 Q 44.35 263.21 44.49 262.83 Q 44.65 262.46 44.65 261.91 L 44.65 257.68 L 45.59 257.68 L 45.59 261.96 Q 45.59 262.65 45.35 263.16 Q 45.13 263.66 44.74 264.01 Q 44.35 264.33 43.82 264.49 Q 43.3 264.65 42.7 264.65 Z  M 51.64 264.55 L 47.96 258.69 Q 47.96 258.93 47.98 259.16 Q 48 259.37 48 259.6 Q 48.01 259.82 48.01 259.98 L 48.01 264.55 L 47.18 264.55 L 47.18 257.68 L 48.26 257.68 L 51.98 263.57 Q 51.96 263.33 51.95 263.1 Q 51.95 262.88 51.93 262.65 Q 51.92 262.4 51.92 262.18 L 51.92 257.68 L 52.76 257.68 L 52.76 264.55 L 51.64 264.55 Z  M 57.09 258.43 L 57.09 264.55 L 56.17 264.55 L 56.17 258.43 L 53.79 258.43 L 53.79 257.68 L 59.45 257.68 L 59.45 258.43 L 57.09 258.43 Z  M 59.76 266.63 L 59.76 266.01 L 60.9 266.01 L 60.9 257.94 L 59.76 257.94 L 59.76 257.3 L 61.75 257.3 L 61.75 266.63 L 59.76 266.63 Z "/></g><line x1="53.6" y1="21" x2="53.6" y2="500" style="stroke-width: 0.5;stroke: rgb(225,225,225);stroke-opacity: 1.0;stroke-linejoin: bevel;stroke-dasharray: 2.0, 2.0;shape-rendering:crispEdges;" clip-path="url(#4744385419576815639clip-2)"/><line x1="152.51" y1="21" x2="152.51" y2="500" style="stroke-width: 0.5;stroke: rgb(225,225,225);stroke-opacity: 1.0;stroke-linejoin: bevel;stroke-dasharray: 2.0, 2.0;shape-rendering:crispEdges;" clip-path="url(#4744385419576815639clip-2)"/><line x1="251.41" y1="21" x2="251.41" y2="500" style="stroke-width: 0.5;stroke: rgb(225,225,225);stroke-opacity: 1.0;stroke-linejoin: bevel;stroke-dasharray: 2.0, 2.0;shape-rendering:crispEdges;" clip-path="url(#4744385419576815639clip-2)"/><line x1="350.31" y1="21" x2="350.31" y2="500" style="stroke-width: 0.5;stroke: rgb(225,225,225);stroke-opacity: 1.0;stroke-linejoin: bevel;stroke-dasharray: 2.0, 2.0;shape-rendering:crispEdges;" clip-path="url(#4744385419576815639clip-2)"/><line x1="449.21" y1="21" x2="449.21" y2="500" style="stroke-width: 0.5;stroke: rgb(225,225,225);stroke-opacity: 1.0;stroke-linejoin: bevel;stroke-dasharray: 2.0, 2.0;shape-rendering:crispEdges;" clip-path="url(#4744385419576815639clip-2)"/><line x1="548.11" y1="21" x2="548.11" y2="500" style="stroke-width: 0.5;stroke: rgb(225,225,225);stroke-opacity: 1.0;stroke-linejoin: bevel;stroke-dasharray: 2.0, 2.0;shape-rendering:crispEdges;" clip-path="url(#4744385419576815639clip-2)"/><line x1="647.01" y1="21" x2="647.01" y2="500" style="stroke-width: 0.5;stroke: rgb(225,225,225);stroke-opacity: 1.0;stroke-linejoin: bevel;stroke-dasharray: 2.0, 2.0;shape-rendering:crispEdges;" clip-path="url(#4744385419576815639clip-2)"/><line x1="745.91" y1="21" x2="745.91" y2="500" style="stroke-width: 0.5;stroke: rgb(225,225,225);stroke-opacity: 1.0;stroke-linejoin: bevel;stroke-dasharray: 2.0, 2.0;shape-rendering:crispEdges;" clip-path="url(#4744385419576815639clip-2)"/><line x1="48" y1="479.26" x2="768" y2="479.26" style="stroke-width: 0.5;stroke: rgb(225,225,225);stroke-opacity: 1.0;stroke-linejoin: bevel;stroke-dasharray: 2.0, 2.0;shape-rendering:crispEdges;" clip-path="url(#4744385419576815639clip-2)"/><line x1="48" y1="458.53" x2="768" y2="458.53" style="stroke-width: 0.5;stroke: rgb(225,225,225);stroke-opacity: 1.0;stroke-linejoin: bevel;stroke-dasharray: 2.0, 2.0;shape-rendering:crispEdges;" clip-path="url(#4744385419576815639clip-2)"/><line x1="48" y1="437.79" x2="768" y2="437.79" style="stroke-width: 0.5;stroke: rgb(225,225,225);stroke-opacity: 1.0;stroke-linejoin: bevel;stroke-dasharray: 2.0, 2.0;shape-rendering:crispEdges;" clip-path="url(#4744385419576815639clip-2)"/><line x1="48" y1="417.06" x2="768" y2="417.06" style="stroke-width: 0.5;stroke: rgb(225,225,225);stroke-opacity: 1.0;stroke-linejoin: bevel;stroke-dasharray: 2.0, 2.0;shape-rendering:crispEdges;" clip-path="url(#4744385419576815639clip-2)"/><line x1="48" y1="396.32" x2="768" y2="396.32" style="stroke-width: 0.5;stroke: rgb(225,225,225);stroke-opacity: 1.0;stroke-linejoin: bevel;stroke-dasharray: 2.0, 2.0;shape-rendering:crispEdges;" clip-path="url(#4744385419576815639clip-2)"/><line x1="48" y1="375.58" x2="768" y2="375.58" style="stroke-width: 0.5;stroke: rgb(225,225,225);stroke-opacity: 1.0;stroke-linejoin: bevel;stroke-dasharray: 2.0, 2.0;shape-rendering:crispEdges;" clip-path="url(#4744385419576815639clip-2)"/><line x1="48" y1="354.85" x2="768" y2="354.85" style="stroke-width: 0.5;stroke: rgb(225,225,225);stroke-opacity: 1.0;stroke-linejoin: bevel;stroke-dasharray: 2.0, 2.0;shape-rendering:crispEdges;" clip-path="url(#4744385419576815639clip-2)"/><line x1="48" y1="334.11" x2="768" y2="334.11" style="stroke-width: 0.5;stroke: rgb(225,225,225);stroke-opacity: 1.0;stroke-linejoin: bevel;stroke-dasharray: 2.0, 2.0;shape-rendering:crispEdges;" clip-path="url(#4744385419576815639clip-2)"/><line x1="48" y1="313.38" x2="768" y2="313.38" style="stroke-width: 0.5;stroke: rgb(225,225,225);stroke-opacity: 1.0;stroke-linejoin: bevel;stroke-dasharray: 2.0, 2.0;shape-rendering:crispEdges;" clip-path="url(#4744385419576815639clip-2)"/><line x1="48" y1="292.64" x2="768" y2="292.64" style="stroke-width: 0.5;stroke: rgb(225,225,225);stroke-opacity: 1.0;stroke-linejoin: bevel;stroke-dasharray: 2.0, 2.0;shape-rendering:crispEdges;" clip-path="url(#4744385419576815639clip-2)"/><line x1="48" y1="271.9" x2="768" y2="271.9" style="stroke-width: 0.5;stroke: rgb(225,225,225);stroke-opacity: 1.0;stroke-linejoin: bevel;stroke-dasharray: 2.0, 2.0;shape-rendering:crispEdges;" clip-path="url(#4744385419576815639clip-2)"/><line x1="48" y1="251.17" x2="768" y2="251.17" style="stroke-width: 0.5;stroke: rgb(225,225,225);stroke-opacity: 1.0;stroke-linejoin: bevel;stroke-dasharray: 2.0, 2.0;shape-rendering:crispEdges;" clip-path="url(#4744385419576815639clip-2)"/><line x1="48" y1="230.43" x2="768" y2="230.43" style="stroke-width: 0.5;stroke: rgb(225,225,225);stroke-opacity: 1.0;stroke-linejoin: bevel;stroke-dasharray: 2.0, 2.0;shape-rendering:crispEdges;" clip-path="url(#4744385419576815639clip-2)"/><line x1="48" y1="209.7" x2="768" y2="209.7" style="stroke-width: 0.5;stroke: rgb(225,225,225);stroke-opacity: 1.0;stroke-linejoin: bevel;stroke-dasharray: 2.0, 2.0;shape-rendering:crispEdges;" clip-path="url(#4744385419576815639clip-2)"/><line x1="48" y1="188.96" x2="768" y2="188.96" style="stroke-width: 0.5;stroke: rgb(225,225,225);stroke-opacity: 1.0;stroke-linejoin: bevel;stroke-dasharray: 2.0, 2.0;shape-rendering:crispEdges;" clip-path="url(#4744385419576815639clip-2)"/><line x1="48" y1="168.23" x2="768" y2="168.23" style="stroke-width: 0.5;stroke: rgb(225,225,225);stroke-opacity: 1.0;stroke-linejoin: bevel;stroke-dasharray: 2.0, 2.0;shape-rendering:crispEdges;" clip-path="url(#4744385419576815639clip-2)"/><line x1="48" y1="147.49" x2="768" y2="147.49" style="stroke-width: 0.5;stroke: rgb(225,225,225);stroke-opacity: 1.0;stroke-linejoin: bevel;stroke-dasharray: 2.0, 2.0;shape-rendering:crispEdges;" clip-path="url(#4744385419576815639clip-2)"/><line x1="48" y1="126.75" x2="768" y2="126.75" style="stroke-width: 0.5;stroke: rgb(225,225,225);stroke-opacity: 1.0;stroke-linejoin: bevel;stroke-dasharray: 2.0, 2.0;shape-rendering:crispEdges;" clip-path="url(#4744385419576815639clip-2)"/><line x1="48" y1="106.02" x2="768" y2="106.02" style="stroke-width: 0.5;stroke: rgb(225,225,225);stroke-opacity: 1.0;stroke-linejoin: bevel;stroke-dasharray: 2.0, 2.0;shape-rendering:crispEdges;" clip-path="url(#4744385419576815639clip-2)"/><line x1="48" y1="85.28" x2="768" y2="85.28" style="stroke-width: 0.5;stroke: rgb(225,225,225);stroke-opacity: 1.0;stroke-linejoin: bevel;stroke-dasharray: 2.0, 2.0;shape-rendering:crispEdges;" clip-path="url(#4744385419576815639clip-2)"/><line x1="48" y1="64.55" x2="768" y2="64.55" style="stroke-width: 0.5;stroke: rgb(225,225,225);stroke-opacity: 1.0;stroke-linejoin: bevel;stroke-dasharray: 2.0, 2.0;shape-rendering:crispEdges;" clip-path="url(#4744385419576815639clip-2)"/><line x1="48" y1="43.81" x2="768" y2="43.81" style="stroke-width: 0.5;stroke: rgb(225,225,225);stroke-opacity: 1.0;stroke-linejoin: bevel;stroke-dasharray: 2.0, 2.0;shape-rendering:crispEdges;" clip-path="url(#4744385419576815639clip-2)"/><line x1="48" y1="23.07" x2="768" y2="23.07" style="stroke-width: 0.5;stroke: rgb(225,225,225);stroke-opacity: 1.0;stroke-linejoin: bevel;stroke-dasharray: 2.0, 2.0;shape-rendering:crispEdges;" clip-path="url(#4744385419576815639clip-2)"/><line x1="48" y1="500" x2="768" y2="500" style="stroke-width: 0.5;stroke: rgb(0,0,0);stroke-opacity: 1.0;stroke-linecap: square;shape-rendering:crispEdges;" clip-path="url(#4744385419576815639clip-2)"/><line x1="292.62" y1="458.53" x2="408" y2="458.53" style="stroke-width: 1.0;stroke: rgb(255,85,255);stroke-opacity: 1.0;stroke-linecap: square;stroke-linejoin: bevel;shape-rendering:geometricPrecision;" clip-path="url(#4744385419576815639clip-2)"/><line x1="408" y1="458.53" x2="523.38" y2="292.64" style="stroke-width: 1.0;stroke: rgb(255,85,255);stroke-opacity: 1.0;stroke-linecap: square;stroke-linejoin: bevel;shape-rendering:geometricPrecision;" clip-path="url(#4744385419576815639clip-2)"/><line x1="523.38" y1="292.64" x2="638.77" y2="43.81" style="stroke-width: 1.0;stroke: rgb(255,85,255);stroke-opacity: 1.0;stroke-linecap: square;stroke-linejoin: bevel;shape-rendering:geometricPrecision;" clip-path="url(#4744385419576815639clip-2)"/><line x1="638.77" y1="43.81" x2="754.15" y2="251.17" style="stroke-width: 1.0;stroke: rgb(255,85,255);stroke-opacity: 1.0;stroke-linecap: square;stroke-linejoin: bevel;shape-rendering:geometricPrecision;" clip-path="url(#4744385419576815639clip-2)"/><line x1="61.85" y1="251.17" x2="177.23" y2="251.17" style="stroke-width: 1.0;stroke: rgb(85,255,85);stroke-opacity: 1.0;stroke-linecap: square;stroke-linejoin: bevel;shape-rendering:geometricPrecision;" clip-path="url(#4744385419576815639clip-2)"/><line x1="177.23" y1="251.17" x2="292.62" y2="292.64" style="stroke-width: 1.0;stroke: rgb(85,255,85);stroke-opacity: 1.0;stroke-linecap: square;stroke-linejoin: bevel;shape-rendering:geometricPrecision;" clip-path="url(#4744385419576815639clip-2)"/><line x1="292.62" y1="292.64" x2="408" y2="292.64" style="stroke-width: 1.0;stroke: rgb(85,255,85);stroke-opacity: 1.0;stroke-linecap: square;stroke-linejoin: bevel;shape-rendering:geometricPrecision;" clip-path="url(#4744385419576815639clip-2)"/><line x1="408" y1="292.64" x2="523.38" y2="458.53" style="stroke-width: 1.0;stroke: rgb(85,255,85);stroke-opacity: 1.0;stroke-linecap: square;stroke-linejoin: bevel;shape-rendering:geometricPrecision;" clip-path="url(#4744385419576815639clip-2)"/><line x1="523.38" y1="458.53" x2="638.77" y2="458.53" style="stroke-width: 1.0;stroke: rgb(85,255,85);stroke-opacity: 1.0;stroke-linecap: square;stroke-linejoin: bevel;shape-rendering:geometricPrecision;" clip-path="url(#4744385419576815639clip-2)"/><line x1="523.38" y1="458.53" x2="638.77" y2="251.17" style="stroke-width: 1.0;stroke: rgb(85,85,255);stroke-opacity: 1.0;stroke-linecap: square;stroke-linejoin: bevel;shape-rendering:geometricPrecision;" clip-path="url(#4744385419576815639clip-2)"/><line x1="638.77" y1="251.17" x2="754.15" y2="292.64" style="stroke-width: 1.0;stroke: rgb(85,85,255);stroke-opacity: 1.0;stroke-linecap: square;stroke-linejoin: bevel;shape-rendering:geometricPrecision;" clip-path="url(#4744385419576815639clip-2)"/><line x1="61.85" y1="209.7" x2="177.23" y2="209.7" style="stroke-width: 1.0;stroke: rgb(255,85,85);stroke-opacity: 1.0;stroke-linecap: square;stroke-linejoin: bevel;shape-rendering:geometricPrecision;" clip-path="url(#4744385419576815639clip-2)"/><line x1="177.23" y1="209.7" x2="292.62" y2="209.7" style="stroke-width: 1.0;stroke: rgb(255,85,85);stroke-opacity: 1.0;stroke-linecap: square;stroke-linejoin: bevel;shape-rendering:geometricPrecision;" clip-path="url(#4744385419576815639clip-2)"/><line x1="292.62" y1="209.7" x2="408" y2="209.7" style="stroke-width: 1.0;stroke: rgb(255,85,85);stroke-opacity: 1.0;stroke-linecap: square;stroke-linejoin: bevel;shape-rendering:geometricPrecision;" clip-path="url(#4744385419576815639clip-2)"/><line x1="408" y1="209.7" x2="523.38" y2="251.17" style="stroke-width: 1.0;stroke: rgb(255,85,85);stroke-opacity: 1.0;stroke-linecap: square;stroke-linejoin: bevel;shape-rendering:geometricPrecision;" clip-path="url(#4744385419576815639clip-2)"/><line x1="523.38" y1="251.17" x2="638.77" y2="168.23" style="stroke-width: 1.0;stroke: rgb(255,85,85);stroke-opacity: 1.0;stroke-linecap: square;stroke-linejoin: bevel;shape-rendering:geometricPrecision;" clip-path="url(#4744385419576815639clip-2)"/><line x1="638.77" y1="168.23" x2="754.15" y2="417.06" style="stroke-width: 1.0;stroke: rgb(255,85,85);stroke-opacity: 1.0;stroke-linecap: square;stroke-linejoin: bevel;shape-rendering:geometricPrecision;" clip-path="url(#4744385419576815639clip-2)"/><g style="fill: rgb(255,85,255); fill-opacity: 1.0; stroke: none" clip-path="url(#4744385419576815639clip-2)"><path d="M 292.62 455.53 L 295.62 458.53 L 292.62 461.53 L 289.62 458.53 Z "/></g><g style="stroke-width: 1.0;stroke: rgb(255,85,255);stroke-opacity: 1.0;stroke-linecap: square;shape-rendering:geometricPrecision;; fill: none" clip-path="url(#4744385419576815639clip-2)"><path d="M 292.62 455.53 L 295.62 458.53 L 292.62 461.53 L 289.62 458.53 Z "/></g><g style="fill: rgb(255,85,255); fill-opacity: 1.0; stroke: none" clip-path="url(#4744385419576815639clip-2)"><path d="M 408 455.53 L 411 458.53 L 408 461.53 L 405 458.53 Z "/></g><g style="stroke-width: 1.0;stroke: rgb(255,85,255);stroke-opacity: 1.0;stroke-linecap: square;shape-rendering:geometricPrecision;; fill: none" clip-path="url(#4744385419576815639clip-2)"><path d="M 408 455.53 L 411 458.53 L 408 461.53 L 405 458.53 Z "/></g><g style="fill: rgb(255,85,255); fill-opacity: 1.0; stroke: none" clip-path="url(#4744385419576815639clip-2)"><path d="M 523.38 289.64 L 526.38 292.64 L 523.38 295.64 L 520.38 292.64 Z "/></g><g style="stroke-width: 1.0;stroke: rgb(255,85,255);stroke-opacity: 1.0;stroke-linecap: square;shape-rendering:geometricPrecision;; fill: none" clip-path="url(#4744385419576815639clip-2)"><path d="M 523.38 289.64 L 526.38 292.64 L 523.38 295.64 L 520.38 292.64 Z "/></g><g style="fill: rgb(255,85,255); fill-opacity: 1.0; stroke: none" clip-path="url(#4744385419576815639clip-2)"><path d="M 638.77 40.81 L 641.77 43.81 L 638.77 46.81 L 635.77 43.81 Z "/></g><g style="stroke-width: 1.0;stroke: rgb(255,85,255);stroke-opacity: 1.0;stroke-linecap: square;shape-rendering:geometricPrecision;; fill: none" clip-path="url(#4744385419576815639clip-2)"><path d="M 638.77 40.81 L 641.77 43.81 L 638.77 46.81 L 635.77 43.81 Z "/></g><g style="fill: rgb(255,85,255); fill-opacity: 1.0; stroke: none" clip-path="url(#4744385419576815639clip-2)"><path d="M 754.15 248.17 L 757.15 251.17 L 754.15 254.17 L 751.15 251.17 Z "/></g><g style="stroke-width: 1.0;stroke: rgb(255,85,255);stroke-opacity: 1.0;stroke-linecap: square;shape-rendering:geometricPrecision;; fill: none" clip-path="url(#4744385419576815639clip-2)"><path d="M 754.15 248.17 L 757.15 251.17 L 754.15 254.17 L 751.15 251.17 Z "/></g><g style="fill: rgb(85,255,85); fill-opacity: 1.0; stroke: none" clip-path="url(#4744385419576815639clip-2)"><path d="M 61.85 248.17 L 64.85 254.17 L 58.85 254.17 Z "/></g><g style="stroke-width: 1.0;stroke: rgb(85,255,85);stroke-opacity: 1.0;stroke-linecap: square;shape-rendering:geometricPrecision;; fill: none" clip-path="url(#4744385419576815639clip-2)"><path d="M 61.85 248.17 L 64.85 254.17 L 58.85 254.17 Z "/></g><g style="fill: rgb(85,255,85); fill-opacity: 1.0; stroke: none" clip-path="url(#4744385419576815639clip-2)"><path d="M 177.23 248.17 L 180.23 254.17 L 174.23 254.17 Z "/></g><g style="stroke-width: 1.0;stroke: rgb(85,255,85);stroke-opacity: 1.0;stroke-linecap: square;shape-rendering:geometricPrecision;; fill: none" clip-path="url(#4744385419576815639clip-2)"><path d="M 177.23 248.17 L 180.23 254.17 L 174.23 254.17 Z "/></g><g style="fill: rgb(85,255,85); fill-opacity: 1.0; stroke: none" clip-path="url(#4744385419576815639clip-2)"><path d="M 292.62 289.64 L 295.62 295.64 L 289.62 295.64 Z "/></g><g style="stroke-width: 1.0;stroke: rgb(85,255,85);stroke-opacity: 1.0;stroke-linecap: square;shape-rendering:geometricPrecision;; fill: none" clip-path="url(#4744385419576815639clip-2)"><path d="M 292.62 289.64 L 295.62 295.64 L 289.62 295.64 Z "/></g><g style="fill: rgb(85,255,85); fill-opacity: 1.0; stroke: none" clip-path="url(#4744385419576815639clip-2)"><path d="M 408 289.64 L 411 295.64 L 405 295.64 Z "/></g><g style="stroke-width: 1.0;stroke: rgb(85,255,85);stroke-opacity: 1.0;stroke-linecap: square;shape-rendering:geometricPrecision;; fill: none" clip-path="url(#4744385419576815639clip-2)"><path d="M 408 289.64 L 411 295.64 L 405 295.64 Z "/></g><g style="fill: rgb(85,255,85); fill-opacity: 1.0; stroke: none" clip-path="url(#4744385419576815639clip-2)"><path d="M 523.38 455.53 L 526.38 461.53 L 520.38 461.53 Z "/></g><g style="stroke-width: 1.0;stroke: rgb(85,255,85);stroke-opacity: 1.0;stroke-linecap: square;shape-rendering:geometricPrecision;; fill: none" clip-path="url(#4744385419576815639clip-2)"><path d="M 523.38 455.53 L 526.38 461.53 L 520.38 461.53 Z "/></g><g style="fill: rgb(85,255,85); fill-opacity: 1.0; stroke: none" clip-path="url(#4744385419576815639clip-2)"><path d="M 638.77 455.53 L 641.77 461.53 L 635.77 461.53 Z "/></g><g style="stroke-width: 1.0;stroke: rgb(85,255,85);stroke-opacity: 1.0;stroke-linecap: square;shape-rendering:geometricPrecision;; fill: none" clip-path="url(#4744385419576815639clip-2)"><path d="M 638.77 455.53 L 641.77 461.53 L 635.77 461.53 Z "/></g><g style="fill: rgb(85,85,255); fill-opacity: 1.0; stroke: none" clip-path="url(#4744385419576815639clip-2)"><path d="M 526.38 458.53 C 526.38 460.18 525.04 461.53 523.38 461.53 C 521.73 461.53 520.38 460.18 520.38 458.53 C 520.38 456.87 521.73 455.53 523.38 455.53 C 525.04 455.53 526.38 456.87 526.38 458.53 Z "/></g><g style="stroke-width: 1.0;stroke: rgb(85,85,255);stroke-opacity: 1.0;stroke-linecap: square;shape-rendering:geometricPrecision;; fill: none" clip-path="url(#4744385419576815639clip-2)"><path d="M 526.38 458.53 C 526.38 460.18 525.04 461.53 523.38 461.53 C 521.73 461.53 520.38 460.18 520.38 458.53 C 520.38 456.87 521.73 455.53 523.38 455.53 C 525.04 455.53 526.38 456.87 526.38 458.53 Z "/></g><g style="fill: rgb(85,85,255); fill-opacity: 1.0; stroke: none" clip-path="url(#4744385419576815639clip-2)"><path d="M 641.77 251.17 C 641.77 252.83 640.43 254.17 638.77 254.17 C 637.11 254.17 635.77 252.83 635.77 251.17 C 635.77 249.51 637.11 248.17 638.77 248.17 C 640.43 248.17 641.77 249.51 641.77 251.17 Z "/></g><g style="stroke-width: 1.0;stroke: rgb(85,85,255);stroke-opacity: 1.0;stroke-linecap: square;shape-rendering:geometricPrecision;; fill: none" clip-path="url(#4744385419576815639clip-2)"><path d="M 641.77 251.17 C 641.77 252.83 640.43 254.17 638.77 254.17 C 637.11 254.17 635.77 252.83 635.77 251.17 C 635.77 249.51 637.11 248.17 638.77 248.17 C 640.43 248.17 641.77 249.51 641.77 251.17 Z "/></g><g style="fill: rgb(85,85,255); fill-opacity: 1.0; stroke: none" clip-path="url(#4744385419576815639clip-2)"><path d="M 757.15 292.64 C 757.15 294.3 755.81 295.64 754.15 295.64 C 752.5 295.64 751.15 294.3 751.15 292.64 C 751.15 290.98 752.5 289.64 754.15 289.64 C 755.81 289.64 757.15 290.98 757.15 292.64 Z "/></g><g style="stroke-width: 1.0;stroke: rgb(85,85,255);stroke-opacity: 1.0;stroke-linecap: square;shape-rendering:geometricPrecision;; fill: none" clip-path="url(#4744385419576815639clip-2)"><path d="M 757.15 292.64 C 757.15 294.3 755.81 295.64 754.15 295.64 C 752.5 295.64 751.15 294.3 751.15 292.64 C 751.15 290.98 752.5 289.64 754.15 289.64 C 755.81 289.64 757.15 290.98 757.15 292.64 Z "/></g><g style="fill: rgb(255,85,85); fill-opacity: 1.0; stroke: none" clip-path="url(#4744385419576815639clip-2)"><path d="M 58.85 206.7 L 64.85 206.7 L 64.85 212.7 L 58.85 212.7 L 58.85 206.7 Z "/></g><g style="stroke-width: 1.0;stroke: rgb(255,85,85);stroke-opacity: 1.0;stroke-linecap: square;shape-rendering:geometricPrecision;; fill: none" clip-path="url(#4744385419576815639clip-2)"><path d="M 58.85 206.7 L 64.85 206.7 L 64.85 212.7 L 58.85 212.7 L 58.85 206.7 Z "/></g><g style="fill: rgb(255,85,85); fill-opacity: 1.0; stroke: none" clip-path="url(#4744385419576815639clip-2)"><path d="M 174.23 206.7 L 180.23 206.7 L 180.23 212.7 L 174.23 212.7 L 174.23 206.7 Z "/></g><g style="stroke-width: 1.0;stroke: rgb(255,85,85);stroke-opacity: 1.0;stroke-linecap: square;shape-rendering:geometricPrecision;; fill: none" clip-path="url(#4744385419576815639clip-2)"><path d="M 174.23 206.7 L 180.23 206.7 L 180.23 212.7 L 174.23 212.7 L 174.23 206.7 Z "/></g><g style="fill: rgb(255,85,85); fill-opacity: 1.0; stroke: none" clip-path="url(#4744385419576815639clip-2)"><path d="M 289.62 206.7 L 295.62 206.7 L 295.62 212.7 L 289.62 212.7 L 289.62 206.7 Z "/></g><g style="stroke-width: 1.0;stroke: rgb(255,85,85);stroke-opacity: 1.0;stroke-linecap: square;shape-rendering:geometricPrecision;; fill: none" clip-path="url(#4744385419576815639clip-2)"><path d="M 289.62 206.7 L 295.62 206.7 L 295.62 212.7 L 289.62 212.7 L 289.62 206.7 Z "/></g><g style="fill: rgb(255,85,85); fill-opacity: 1.0; stroke: none" clip-path="url(#4744385419576815639clip-2)"><path d="M 405 206.7 L 411 206.7 L 411 212.7 L 405 212.7 L 405 206.7 Z "/></g><g style="stroke-width: 1.0;stroke: rgb(255,85,85);stroke-opacity: 1.0;stroke-linecap: square;shape-rendering:geometricPrecision;; fill: none" clip-path="url(#4744385419576815639clip-2)"><path d="M 405 206.7 L 411 206.7 L 411 212.7 L 405 212.7 L 405 206.7 Z "/></g><g style="fill: rgb(255,85,85); fill-opacity: 1.0; stroke: none" clip-path="url(#4744385419576815639clip-2)"><path d="M 520.38 248.17 L 526.38 248.17 L 526.38 254.17 L 520.38 254.17 L 520.38 248.17 Z "/></g><g style="stroke-width: 1.0;stroke: rgb(255,85,85);stroke-opacity: 1.0;stroke-linecap: square;shape-rendering:geometricPrecision;; fill: none" clip-path="url(#4744385419576815639clip-2)"><path d="M 520.38 248.17 L 526.38 248.17 L 526.38 254.17 L 520.38 254.17 L 520.38 248.17 Z "/></g><g style="fill: rgb(255,85,85); fill-opacity: 1.0; stroke: none" clip-path="url(#4744385419576815639clip-2)"><path d="M 635.77 165.23 L 641.77 165.23 L 641.77 171.23 L 635.77 171.23 L 635.77 165.23 Z "/></g><g style="stroke-width: 1.0;stroke: rgb(255,85,85);stroke-opacity: 1.0;stroke-linecap: square;shape-rendering:geometricPrecision;; fill: none" clip-path="url(#4744385419576815639clip-2)"><path d="M 635.77 165.23 L 641.77 165.23 L 641.77 171.23 L 635.77 171.23 L 635.77 165.23 Z "/></g><g style="fill: rgb(255,85,85); fill-opacity: 1.0; stroke: none" clip-path="url(#4744385419576815639clip-2)"><path d="M 751.15 414.06 L 757.15 414.06 L 757.15 420.06 L 751.15 420.06 L 751.15 414.06 Z "/></g><g style="stroke-width: 1.0;stroke: rgb(255,85,85);stroke-opacity: 1.0;stroke-linecap: square;shape-rendering:geometricPrecision;; fill: none" clip-path="url(#4744385419576815639clip-2)"><path d="M 751.15 414.06 L 757.15 414.06 L 757.15 420.06 L 751.15 420.06 L 751.15 414.06 Z "/></g><rect x="48" y="21" width="720" height="479" style="stroke-width: 0.5;stroke: rgb(0,0,0);stroke-opacity: 1.0;stroke-linecap: round;stroke-linejoin: round;shape-rendering:crispEdges;; fill: none" clip-path="url(#4744385419576815639clip-0)"/></svg>
