<!DOCTYPE svg PUBLIC "-//W3C//DTD SVG 1.1//EN" "http://www.w3.org/Graphics/SVG/1.1/DTD/svg11.dtd">
<svg xmlns="http://www.w3.org/2000/svg" xmlns:xlink="http://www.w3.org/1999/xlink" xmlns:jfreesvg="http://www.jfree.org/jfreesvg/svg" width="800" height="600" text-rendering="auto" shape-rendering="auto">
<defs><clipPath id="4744385419576815639clip-0"><path d="M 0 0 L 800 0 L 800 600 L 0 600 L 0 0 Z "/></clipPath>
<clipPath id="4744385419576815639clip-1"><path d="M 276.75 243.25 L 276.75 1043.25 L -323.25 1043.25 L -323.25 243.25 L 276.75 243.25 Z "/></clipPath>
<clipPath id="4744385419576815639clip-2"><path d="M 52.96 29 L 52.96 491.01 L 752 491.01 L 752 29 Z "/></clipPath>
</defs>
<rect x="0" y="0" width="800" height="600" style="fill: rgb(255,255,255); fill-opacity: 1.0" clip-path="url(#4744385419576815639clip-0)"/><g ><text x="277.74" y="10.05" style="fill: rgb(0,0,0); fill-opacity: 1.0; font-family: Liberation Sans; font-size: 10px;" clip-path="url(#4744385419576815639clip-0)">SAMPLE SIZE for predictions of DISCHARGE</text></g><g ><text x="241.62" y="21.55" style="fill: rgb(0,0,0); fill-opacity: 1.0; font-family: Liberation Sans; font-size: 10px;" clip-path="url(#4744385419576815639clip-0)">at FAKE2-FAKE2 with Time Scale [10800 SECONDS, MEAN] </text></g><rect x="1" y="529" width="758" height="70" style="fill: rgb(255,255,255); fill-opacity: 0.0" clip-path="url(#4744385419576815639clip-0)"/><g ><text x="4" y="540.06" style="fill: rgb(0,0,0); fill-opacity: 1.0; font-family: Liberation Sans; font-size: 10px;" clip-path="url(#4744385419576815639clip-0)">Lead time window [SECONDS], Valid time window (UTC), Threshold [CMS]:</text></g><g style="stroke-width: 0.5;stroke: rgb(255,85,85);stroke-opacity: 1.0;stroke-linecap: square;stroke-miterlimit: 10;; fill: none" clip-path="url(#4744385419576815639clip-0)"><path d="M 344.77 537.75 L 358.77 537.75"/></g><g style="fill: rgb(255,85,85); fill-opacity: 1.0; stroke: none" clip-path="url(#4744385419576815639clip-0)"><path d="M 348.77 534.75 L 354.77 534.75 L 354.77 540.75 L 348.77 540.75 L 348.77 534.75 Z "/></g><g style="stroke-width: 1.0;stroke: rgb(255,85,85);stroke-opacity: 1.0;stroke-linecap: square;stroke-miterlimit: 10;; fill: none" clip-path="url(#4744385419576815639clip-0)"><path d="M 348.77 534.75 L 354.77 534.75 L 354.77 540.75 L 348.77 540.75 L 348.77 534.75 Z "/></g><g ><text x="362.77" y="541.06" style="fill: rgb(0,0,0); fill-opacity: 1.0; font-family: Liberation Sans; font-size: 10px;" clip-path="url(#4744385419576815639clip-0)">(0,82800], (2551-03-17T00:00:00,2551-03-19T08:00:00], All data</text></g><g style="stroke-width: 0.5;stroke: rgb(85,85,255);stroke-opacity: 1.0;stroke-linecap: square;stroke-miterlimit: 10;; fill: none" clip-path="url(#4744385419576815639clip-0)"><path d="M 344.77 555.25 L 358.77 555.25"/></g><g style="fill: rgb(85,85,255); fill-opacity: 1.0; stroke: none" clip-path="url(#4744385419576815639clip-0)"><path d="M 354.77 555.25 C 354.77 556.91 353.43 558.25 351.77 558.25 C 350.12 558.25 348.77 556.91 348.77 555.25 C 348.77 553.6 350.12 552.25 351.77 552.25 C 353.43 552.25 354.77 553.6 354.77 555.25 Z "/></g><g style="stroke-width: 1.0;stroke: rgb(85,85,255);stroke-opacity: 1.0;stroke-linecap: square;stroke-miterlimit: 10;; fill: none" clip-path="url(#4744385419576815639clip-0)"><path d="M 354.77 555.25 C 354.77 556.91 353.43 558.25 351.77 558.25 C 350.12 558.25 348.77 556.91 348.77 555.25 C 348.77 553.6 350.12 552.25 351.77 552.25 C 353.43 552.25 354.77 553.6 354.77 555.25 Z "/></g><g ><text x="362.77" y="558.56" style="fill: rgb(0,0,0); fill-opacity: 1.0; font-family: Liberation Sans; font-size: 10px;" clip-path="url(#4744385419576815639clip-0)">(0,82800], (2551-03-19T08:00:00,2551-03-21T16:00:00], All data</text></g><g style="stroke-width: 0.5;stroke: rgb(85,255,85);stroke-opacity: 1.0;stroke-linecap: square;stroke-miterlimit: 10;; fill: none" clip-path="url(#4744385419576815639clip-0)"><path d="M 344.77 572.75 L 358.77 572.75"/></g><g style="fill: rgb(85,255,85); fill-opacity: 1.0; stroke: none" clip-path="url(#4744385419576815639clip-0)"><path fill-rule="evenodd" d="M 351.77 569.75 L 354.77 575.75 L 348.77 575.75 Z "/></g><g style="stroke-width: 1.0;stroke: rgb(85,255,85);stroke-opacity: 1.0;stroke-linecap: square;stroke-miterlimit: 10;; fill: none" clip-path="url(#4744385419576815639clip-0)"><path fill-rule="evenodd" d="M 351.77 569.75 L 354.77 575.75 L 348.77 575.75 Z "/></g><g ><text x="362.77" y="576.05" style="fill: rgb(0,0,0); fill-opacity: 1.0; font-family: Liberation Sans; font-size: 10px;" clip-path="url(#4744385419576815639clip-0)">(61200,144000], (2551-03-17T00:00:00,2551-03-19T08:00:00], All data</text></g><g style="stroke-width: 0.5;stroke: rgb(255,85,255);stroke-opacity: 1.0;stroke-linecap: square;stroke-miterlimit: 10;; fill: none" clip-path="url(#4744385419576815639clip-0)"><path d="M 344.77 590.25 L 358.77 590.25"/></g><g style="fill: rgb(255,85,255); fill-opacity: 1.0; stroke: none" clip-path="url(#4744385419576815639clip-0)"><path fill-rule="evenodd" d="M 351.77 587.25 L 354.77 590.25 L 351.77 593.25 L 348.77 590.25 Z "/></g><g style="stroke-width: 1.0;stroke: rgb(255,85,255);stroke-opacity: 1.0;stroke-linecap: square;stroke-miterlimit: 10;; fill: none" clip-path="url(#4744385419576815639clip-0)"><path fill-rule="evenodd" d="M 351.77 587.25 L 354.77 590.25 L 351.77 593.25 L 348.77 590.25 Z "/></g><g ><text x="362.77" y="593.55" style="fill: rgb(0,0,0); fill-opacity: 1.0; font-family: Liberation Sans; font-size: 10px;" clip-path="url(#4744385419576815639clip-0)">(61200,144000], (2551-03-19T08:00:00,2551-03-21T16:00:00], All data</text></g><line x1="52.96" y1="491.01" x2="752" y2="491.01" style="stroke-width: 1.0;stroke: rgb(128,128,128);stroke-opacity: 1.0;stroke-linecap: square;stroke-miterlimit: 10;" clip-path="url(#4744385419576815639clip-0)"/><g ><text x="43.11" y="504.06" style="fill: rgb(0,0,0); fill-opacity: 1.0; font-family: Liberation Sans; font-size: 10px;" clip-path="url(#4744385419576815639clip-0)">2551-03-17+06</text></g><line x1="77.17" y1="493.01" x2="77.17" y2="491.01" style="stroke-width: 1.0;stroke: rgb(128,128,128);stroke-opacity: 1.0;stroke-linecap: square;stroke-miterlimit: 10;" clip-path="url(#4744385419576815639clip-0)"/><g ><text x="133.9" y="504.06" style="fill: rgb(0,0,0); fill-opacity: 1.0; font-family: Liberation Sans; font-size: 10px;" clip-path="url(#4744385419576815639clip-0)">2551-03-17+12</text></g><line x1="167.96" y1="493.01" x2="167.96" y2="491.01" style="stroke-width: 1.0;stroke: rgb(128,128,128);stroke-opacity: 1.0;stroke-linecap: square;stroke-miterlimit: 10;" clip-path="url(#4744385419576815639clip-0)"/><g ><text x="224.68" y="504.06" style="fill: rgb(0,0,0); fill-opacity: 1.0; font-family: Liberation Sans; font-size: 10px;" clip-path="url(#4744385419576815639clip-0)">2551-03-17+18</text></g><line x1="258.74" y1="493.01" x2="258.74" y2="491.01" style="stroke-width: 1.0;stroke: rgb(128,128,128);stroke-opacity: 1.0;stroke-linecap: square;stroke-miterlimit: 10;" clip-path="url(#4744385419576815639clip-0)"/><g ><text x="315.47" y="504.06" style="fill: rgb(0,0,0); fill-opacity: 1.0; font-family: Liberation Sans; font-size: 10px;" clip-path="url(#4744385419576815639clip-0)">2551-03-18+00</text></g><line x1="349.52" y1="493.01" x2="349.52" y2="491.01" style="stroke-width: 1.0;stroke: rgb(128,128,128);stroke-opacity: 1.0;stroke-linecap: square;stroke-miterlimit: 10;" clip-path="url(#4744385419576815639clip-0)"/><g ><text x="406.25" y="504.06" style="fill: rgb(0,0,0); fill-opacity: 1.0; font-family: Liberation Sans; font-size: 10px;" clip-path="url(#4744385419576815639clip-0)">2551-03-18+06</text></g><line x1="440.31" y1="493.01" x2="440.31" y2="491.01" style="stroke-width: 1.0;stroke: rgb(128,128,128);stroke-opacity: 1.0;stroke-linecap: square;stroke-miterlimit: 10;" clip-path="url(#4744385419576815639clip-0)"/><g ><text x="497.03" y="504.06" style="fill: rgb(0,0,0); fill-opacity: 1.0; font-family: Liberation Sans; font-size: 10px;" clip-path="url(#4744385419576815639clip-0)">2551-03-18+12</text></g><line x1="531.09" y1="493.01" x2="531.09" y2="491.01" style="stroke-width: 1.0;stroke: rgb(128,128,128);stroke-opacity: 1.0;stroke-linecap: square;stroke-miterlimit: 10;" clip-path="url(#4744385419576815639clip-0)"/><g ><text x="587.82" y="504.06" style="fill: rgb(0,0,0); fill-opacity: 1.0; font-family: Liberation Sans; font-size: 10px;" clip-path="url(#4744385419576815639clip-0)">2551-03-18+18</text></g><line x1="621.88" y1="493.01" x2="621.88" y2="491.01" style="stroke-width: 1.0;stroke: rgb(128,128,128);stroke-opacity: 1.0;stroke-linecap: square;stroke-miterlimit: 10;" clip-path="url(#4744385419576815639clip-0)"/><g ><text x="678.6" y="504.06" style="fill: rgb(0,0,0); fill-opacity: 1.0; font-family: Liberation Sans; font-size: 10px;" clip-path="url(#4744385419576815639clip-0)">2551-03-19+00</text></g><line x1="712.66" y1="493.01" x2="712.66" y2="491.01" style="stroke-width: 1.0;stroke: rgb(128,128,128);stroke-opacity: 1.0;stroke-linecap: square;stroke-miterlimit: 10;" clip-path="url(#4744385419576815639clip-0)"/><g ><text x="281.37" y="518.56" style="fill: rgb(0,0,0); fill-opacity: 1.0; font-family: Liberation Sans; font-size: 10px;" clip-path="url(#4744385419576815639clip-0)">TIME AT CENTER OF ISSUED TIME WINDOW [UTC]</text></g><rect x="52.96" y="29" width="699.04" height="462.01" style="fill: rgb(255,255,255); fill-opacity: 0.0" clip-path="url(#4744385419576815639clip-0)"/><line x1="52.96" y1="29" x2="52.96" y2="491.01" style="stroke-width: 1.0;stroke: rgb(128,128,128);stroke-opacity: 1.0;stroke-linecap: square;stroke-miterlimit: 10;" clip-path="url(#4744385419576815639clip-0)"/><g ><text x="33.06" y="494.31" style="fill: rgb(0,0,0); fill-opacity: 1.0; font-family: Liberation Sans; font-size: 10px;" clip-path="url(#4744385419576815639clip-0)">0.0</text></g><line x1="50.96" y1="491.01" x2="52.96" y2="491.01" style="stroke-width: 1.0;stroke: rgb(128,128,128);stroke-opacity: 1.0;stroke-linecap: square;stroke-miterlimit: 10;" clip-path="url(#4744385419576815639clip-0)"/><g ><text x="33.06" y="474.31" style="fill: rgb(0,0,0); fill-opacity: 1.0; font-family: Liberation Sans; font-size: 10px;" clip-path="url(#4744385419576815639clip-0)">0.5</text></g><line x1="50.96" y1="471.01" x2="52.96" y2="471.01" style="stroke-width: 1.0;stroke: rgb(128,128,128);stroke-opacity: 1.0;stroke-linecap: square;stroke-miterlimit: 10;" clip-path="url(#4744385419576815639clip-0)"/><g ><text x="33.06" y="454.31" style="fill: rgb(0,0,0); fill-opacity: 1.0; font-family: Liberation Sans; font-size: 10px;" clip-path="url(#4744385419576815639clip-0)">1.0</text></g><line x1="50.96" y1="451.01" x2="52.96" y2="451.01" style="stroke-width: 1.0;stroke: rgb(128,128,128);stroke-opacity: 1.0;stroke-linecap: square;stroke-miterlimit: 10;" clip-path="url(#4744385419576815639clip-0)"/><g ><text x="33.06" y="434.31" style="fill: rgb(0,0,0); fill-opacity: 1.0; font-family: Liberation Sans; font-size: 10px;" clip-path="url(#4744385419576815639clip-0)">1.5</text></g><line x1="50.96" y1="431" x2="52.96" y2="431" style="stroke-width: 1.0;stroke: rgb(128,128,128);stroke-opacity: 1.0;stroke-linecap: square;stroke-miterlimit: 10;" clip-path="url(#4744385419576815639clip-0)"/><g ><text x="33.06" y="414.31" style="fill: rgb(0,0,0); fill-opacity: 1.0; font-family: Liberation Sans; font-size: 10px;" clip-path="url(#4744385419576815639clip-0)">2.0</text></g><line x1="50.96" y1="411" x2="52.96" y2="411" style="stroke-width: 1.0;stroke: rgb(128,128,128);stroke-opacity: 1.0;stroke-linecap: square;stroke-miterlimit: 10;" clip-path="url(#4744385419576815639clip-0)"/><g ><text x="33.06" y="394.31" style="fill: rgb(0,0,0); fill-opacity: 1.0; font-family: Liberation Sans; font-size: 10px;" clip-path="url(#4744385419576815639clip-0)">2.5</text></g><line x1="50.96" y1="391" x2="52.96" y2="391" style="stroke-width: 1.0;stroke: rgb(128,128,128);stroke-opacity: 1.0;stroke-linecap: square;stroke-miterlimit: 10;" clip-path="url(#4744385419576815639clip-0)"/><g ><text x="33.06" y="374.31" style="fill: rgb(0,0,0); fill-opacity: 1.0; font-family: Liberation Sans; font-size: 10px;" clip-path="url(#4744385419576815639clip-0)">3.0</text></g><line x1="50.96" y1="371" x2="52.96" y2="371" style="stroke-width: 1.0;stroke: rgb(128,128,128);stroke-opacity: 1.0;stroke-linecap: square;stroke-miterlimit: 10;" clip-path="url(#4744385419576815639clip-0)"/><g ><text x="33.06" y="354.31" style="fill: rgb(0,0,0); fill-opacity: 1.0; font-family: Liberation Sans; font-size: 10px;" clip-path="url(#4744385419576815639clip-0)">3.5</text></g><line x1="50.96" y1="351" x2="52.96" y2="351" style="stroke-width: 1.0;stroke: rgb(128,128,128);stroke-opacity: 1.0;stroke-linecap: square;stroke-miterlimit: 10;" clip-path="url(#4744385419576815639clip-0)"/><g ><text x="33.06" y="334.31" style="fill: rgb(0,0,0); fill-opacity: 1.0; font-family: Liberation Sans; font-size: 10px;" clip-path="url(#4744385419576815639clip-0)">4.0</text></g><line x1="50.96" y1="331" x2="52.96" y2="331" style="stroke-width: 1.0;stroke: rgb(128,128,128);stroke-opacity: 1.0;stroke-linecap: square;stroke-miterlimit: 10;" clip-path="url(#4744385419576815639clip-0)"/><g ><text x="33.06" y="314.31" style="fill: rgb(0,0,0); fill-opacity: 1.0; font-family: Liberation Sans; font-size: 10px;" clip-path="url(#4744385419576815639clip-0)">4.5</text></g><line x1="50.96" y1="311" x2="52.96" y2="311" style="stroke-width: 1.0;stroke: rgb(128,128,128);stroke-opacity: 1.0;stroke-linecap: square;stroke-miterlimit: 10;" clip-path="url(#4744385419576815639clip-0)"/><g ><text x="33.06" y="294.31" style="fill: rgb(0,0,0); fill-opacity: 1.0; font-family: Liberation Sans; font-size: 10px;" clip-path="url(#4744385419576815639clip-0)">5.0</text></g><line x1="50.96" y1="291" x2="52.96" y2="291" style="stroke-width: 1.0;stroke: rgb(128,128,128);stroke-opacity: 1.0;stroke-linecap: square;stroke-miterlimit: 10;" clip-path="url(#4744385419576815639clip-0)"/><g ><text x="33.06" y="274.31" style="fill: rgb(0,0,0); fill-opacity: 1.0; font-family: Liberation Sans; font-size: 10px;" clip-path="url(#4744385419576815639clip-0)">5.5</text></g><line x1="50.96" y1="271" x2="52.96" y2="271" style="stroke-width: 1.0;stroke: rgb(128,128,128);stroke-opacity: 1.0;stroke-linecap: square;stroke-miterlimit: 10;" clip-path="url(#4744385419576815639clip-0)"/><g ><text x="33.06" y="254.31" style="fill: rgb(0,0,0); fill-opacity: 1.0; font-family: Liberation Sans; font-size: 10px;" clip-path="url(#4744385419576815639clip-0)">6.0</text></g><line x1="50.96" y1="251" x2="52.96" y2="251" style="stroke-width: 1.0;stroke: rgb(128,128,128);stroke-opacity: 1.0;stroke-linecap: square;stroke-miterlimit: 10;" clip-path="url(#4744385419576815639clip-0)"/><g ><text x="33.06" y="234.3" style="fill: rgb(0,0,0); fill-opacity: 1.0; font-family: Liberation Sans; font-size: 10px;" clip-path="url(#4744385419576815639clip-0)">6.5</text></g><line x1="50.96" y1="231" x2="52.96" y2="231" style="stroke-width: 1.0;stroke: rgb(128,128,128);stroke-opacity: 1.0;stroke-linecap: square;stroke-miterlimit: 10;" clip-path="url(#4744385419576815639clip-0)"/><g ><text x="33.06" y="214.3" style="fill: rgb(0,0,0); fill-opacity: 1.0; font-family: Liberation Sans; font-size: 10px;" clip-path="url(#4744385419576815639clip-0)">7.0</text></g><line x1="50.96" y1="211" x2="52.96" y2="211" style="stroke-width: 1.0;stroke: rgb(128,128,128);stroke-opacity: 1.0;stroke-linecap: square;stroke-miterlimit: 10;" clip-path="url(#4744385419576815639clip-0)"/><g ><text x="33.06" y="194.3" style="fill: rgb(0,0,0); fill-opacity: 1.0; font-family: Liberation Sans; font-size: 10px;" clip-path="url(#4744385419576815639clip-0)">7.5</text></g><line x1="50.96" y1="191" x2="52.96" y2="191" style="stroke-width: 1.0;stroke: rgb(128,128,128);stroke-opacity: 1.0;stroke-linecap: square;stroke-miterlimit: 10;" clip-path="url(#4744385419576815639clip-0)"/><g ><text x="33.06" y="174.3" style="fill: rgb(0,0,0); fill-opacity: 1.0; font-family: Liberation Sans; font-size: 10px;" clip-path="url(#4744385419576815639clip-0)">8.0</text></g><line x1="50.96" y1="171" x2="52.96" y2="171" style="stroke-width: 1.0;stroke: rgb(128,128,128);stroke-opacity: 1.0;stroke-linecap: square;stroke-miterlimit: 10;" clip-path="url(#4744385419576815639clip-0)"/><g ><text x="33.06" y="154.3" style="fill: rgb(0,0,0); fill-opacity: 1.0; font-family: Liberation Sans; font-size: 10px;" clip-path="url(#4744385419576815639clip-0)">8.5</text></g><line x1="50.96" y1="151" x2="52.96" y2="151" style="stroke-width: 1.0;stroke: rgb(128,128,128);stroke-opacity: 1.0;stroke-linecap: square;stroke-miterlimit: 10;" clip-path="url(#4744385419576815639clip-0)"/><g ><text x="33.06" y="134.3" style="fill: rgb(0,0,0); fill-opacity: 1.0; font-family: Liberation Sans; font-size: 10px;" clip-path="url(#4744385419576815639clip-0)">9.0</text></g><line x1="50.96" y1="131" x2="52.96" y2="131" style="stroke-width: 1.0;stroke: rgb(128,128,128);stroke-opacity: 1.0;stroke-linecap: square;stroke-miterlimit: 10;" clip-path="url(#4744385419576815639clip-0)"/><g ><text x="33.06" y="114.3" style="fill: rgb(0,0,0); fill-opacity: 1.0; font-family: Liberation Sans; font-size: 10px;" clip-path="url(#4744385419576815639clip-0)">9.5</text></g><line x1="50.96" y1="111" x2="52.96" y2="111" style="stroke-width: 1.0;stroke: rgb(128,128,128);stroke-opacity: 1.0;stroke-linecap: square;stroke-miterlimit: 10;" clip-path="url(#4744385419576815639clip-0)"/><g ><text x="27.5" y="94.3" style="fill: rgb(0,0,0); fill-opacity: 1.0; font-family: Liberation Sans; font-size: 10px;" clip-path="url(#4744385419576815639clip-0)">10.0</text></g><line x1="50.96" y1="91" x2="52.96" y2="91" style="stroke-width: 1.0;stroke: rgb(128,128,128);stroke-opacity: 1.0;stroke-linecap: square;stroke-miterlimit: 10;" clip-path="url(#4744385419576815639clip-0)"/><g ><text x="27.5" y="74.3" style="fill: rgb(0,0,0); fill-opacity: 1.0; font-family: Liberation Sans; font-size: 10px;" clip-path="url(#4744385419576815639clip-0)">10.5</text></g><line x1="50.96" y1="71" x2="52.96" y2="71" style="stroke-width: 1.0;stroke: rgb(128,128,128);stroke-opacity: 1.0;stroke-linecap: square;stroke-miterlimit: 10;" clip-path="url(#4744385419576815639clip-0)"/><g ><text x="27.5" y="54.3" style="fill: rgb(0,0,0); fill-opacity: 1.0; font-family: Liberation Sans; font-size: 10px;" clip-path="url(#4744385419576815639clip-0)">11.0</text></g><line x1="50.96" y1="51" x2="52.96" y2="51" style="stroke-width: 1.0;stroke: rgb(128,128,128);stroke-opacity: 1.0;stroke-linecap: square;stroke-miterlimit: 10;" clip-path="url(#4744385419576815639clip-0)"/><g ><text x="27.5" y="34.3" style="fill: rgb(0,0,0); fill-opacity: 1.0; font-family: Liberation Sans; font-size: 10px;" clip-path="url(#4744385419576815639clip-0)">11.5</text></g><line x1="50.96" y1="31" x2="52.96" y2="31" style="stroke-width: 1.0;stroke: rgb(128,128,128);stroke-opacity: 1.0;stroke-linecap: square;stroke-miterlimit: 10;" clip-path="url(#4744385419576815639clip-0)"/><g transform="matrix(0,-1,1,0,-243.252441,276.751465)"><text x="-37.98" y="263.31" style="fill: rgb(0,0,0); fill-opacity: 1.0; font-family: Liberation Sans; font-size: 10px;" clip-path="url(#4744385419576815639clip-1)">SAMPLE SIZE [COUNT]</text></g><line x1="77.17" y1="29" x2="77.17" y2="491.01" style="stroke-width: 0.5;stroke: rgb(192,192,192);stroke-opacity: 1.0;stroke-linejoin: bevel;stroke-miterlimit: 0;stroke-dasharray: 2.0, 2.0;" clip-path="url(#4744385419576815639clip-2)"/><line x1="167.96" y1="29" x2="167.96" y2="491.01" style="stroke-width: 0.5;stroke: rgb(192,192,192);stroke-opacity: 1.0;stroke-linejoin: bevel;stroke-miterlimit: 0;stroke-dasharray: 2.0, 2.0;" clip-path="url(#4744385419576815639clip-2)"/><line x1="258.74" y1="29" x2="258.74" y2="491.01" style="stroke-width: 0.5;stroke: rgb(192,192,192);stroke-opacity: 1.0;stroke-linejoin: bevel;stroke-miterlimit: 0;stroke-dasharray: 2.0, 2.0;" clip-path="url(#4744385419576815639clip-2)"/><line x1="349.52" y1="29" x2="349.52" y2="491.01" style="stroke-width: 0.5;stroke: rgb(192,192,192);stroke-opacity: 1.0;stroke-linejoin: bevel;stroke-miterlimit: 0;stroke-dasharray: 2.0, 2.0;" clip-path="url(#4744385419576815639clip-2)"/><line x1="440.31" y1="29" x2="440.31" y2="491.01" style="stroke-width: 0.5;stroke: rgb(192,192,192);stroke-opacity: 1.0;stroke-linejoin: bevel;stroke-miterlimit: 0;stroke-dasharray: 2.0, 2.0;" clip-path="url(#4744385419576815639clip-2)"/><line x1="531.09" y1="29" x2="531.09" y2="491.01" style="stroke-width: 0.5;stroke: rgb(192,192,192);stroke-opacity: 1.0;stroke-linejoin: bevel;stroke-miterlimit: 0;stroke-dasharray: 2.0, 2.0;" clip-path="url(#4744385419576815639clip-2)"/><line x1="621.88" y1="29" x2="621.88" y2="491.01" style="stroke-width: 0.5;stroke: rgb(192,192,192);stroke-opacity: 1.0;stroke-linejoin: bevel;stroke-miterlimit: 0;stroke-dasharray: 2.0, 2.0;" clip-path="url(#4744385419576815639clip-2)"/><line x1="712.66" y1="29" x2="712.66" y2="491.01" style="stroke-width: 0.5;stroke: rgb(192,192,192);stroke-opacity: 1.0;stroke-linejoin: bevel;stroke-miterlimit: 0;stroke-dasharray: 2.0, 2.0;" clip-path="url(#4744385419576815639clip-2)"/><line x1="52.96" y1="491.01" x2="752" y2="491.01" style="stroke-width: 0.5;stroke: rgb(192,192,192);stroke-opacity: 1.0;stroke-linejoin: bevel;stroke-miterlimit: 0;stroke-dasharray: 2.0, 2.0;" clip-path="url(#4744385419576815639clip-2)"/><line x1="52.96" y1="471.01" x2="752" y2="471.01" style="stroke-width: 0.5;stroke: rgb(192,192,192);stroke-opacity: 1.0;stroke-linejoin: bevel;stroke-miterlimit: 0;stroke-dasharray: 2.0, 2.0;" clip-path="url(#4744385419576815639clip-2)"/><line x1="52.96" y1="451.01" x2="752" y2="451.01" style="stroke-width: 0.5;stroke: rgb(192,192,192);stroke-opacity: 1.0;stroke-linejoin: bevel;stroke-miterlimit: 0;stroke-dasharray: 2.0, 2.0;" clip-path="url(#4744385419576815639clip-2)"/><line x1="52.96" y1="431" x2="752" y2="431" style="stroke-width: 0.5;stroke: rgb(192,192,192);stroke-opacity: 1.0;stroke-linejoin: bevel;stroke-miterlimit: 0;stroke-dasharray: 2.0, 2.0;" clip-path="url(#4744385419576815639clip-2)"/><line x1="52.96" y1="411" x2="752" y2="411" style="stroke-width: 0.5;stroke: rgb(192,192,192);stroke-opacity: 1.0;stroke-linejoin: bevel;stroke-miterlimit: 0;stroke-dasharray: 2.0, 2.0;" clip-path="url(#4744385419576815639clip-2)"/><line x1="52.96" y1="391" x2="752" y2="391" style="stroke-width: 0.5;stroke: rgb(192,192,192);stroke-opacity: 1.0;stroke-linejoin: bevel;stroke-miterlimit: 0;stroke-dasharray: 2.0, 2.0;" clip-path="url(#4744385419576815639clip-2)"/><line x1="52.96" y1="371" x2="752" y2="371" style="stroke-width: 0.5;stroke: rgb(192,192,192);stroke-opacity: 1.0;stroke-linejoin: bevel;stroke-miterlimit: 0;stroke-dasharray: 2.0, 2.0;" clip-path="url(#4744385419576815639clip-2)"/><line x1="52.96" y1="351" x2="752" y2="351" style="stroke-width: 0.5;stroke: rgb(192,192,192);stroke-opacity: 1.0;stroke-linejoin: bevel;stroke-miterlimit: 0;stroke-dasharray: 2.0, 2.0;" clip-path="url(#4744385419576815639clip-2)"/><line x1="52.96" y1="331" x2="752" y2="331" style="stroke-width: 0.5;stroke: rgb(192,192,192);stroke-opacity: 1.0;stroke-linejoin: bevel;stroke-miterlimit: 0;stroke-dasharray: 2.0, 2.0;" clip-path="url(#4744385419576815639clip-2)"/><line x1="52.96" y1="311" x2="752" y2="311" style="stroke-width: 0.5;stroke: rgb(192,192,192);stroke-opacity: 1.0;stroke-linejoin: bevel;stroke-miterlimit: 0;stroke-dasharray: 2.0, 2.0;" clip-path="url(#4744385419576815639clip-2)"/><line x1="52.96" y1="291" x2="752" y2="291" style="stroke-width: 0.5;stroke: rgb(192,192,192);stroke-opacity: 1.0;stroke-linejoin: bevel;stroke-miterlimit: 0;stroke-dasharray: 2.0, 2.0;" clip-path="url(#4744385419576815639clip-2)"/><line x1="52.96" y1="271" x2="752" y2="271" style="stroke-width: 0.5;stroke: rgb(192,192,192);stroke-opacity: 1.0;stroke-linejoin: bevel;stroke-miterlimit: 0;stroke-dasharray: 2.0, 2.0;" clip-path="url(#4744385419576815639clip-2)"/><line x1="52.96" y1="251" x2="752" y2="251" style="stroke-width: 0.5;stroke: rgb(192,192,192);stroke-opacity: 1.0;stroke-linejoin: bevel;stroke-miterlimit: 0;stroke-dasharray: 2.0, 2.0;" clip-path="url(#4744385419576815639clip-2)"/><line x1="52.96" y1="231" x2="752" y2="231" style="stroke-width: 0.5;stroke: rgb(192,192,192);stroke-opacity: 1.0;stroke-linejoin: bevel;stroke-miterlimit: 0;stroke-dasharray: 2.0, 2.0;" clip-path="url(#4744385419576815639clip-2)"/><line x1="52.96" y1="211" x2="752" y2="211" style="stroke-width: 0.5;stroke: rgb(192,192,192);stroke-opacity: 1.0;stroke-linejoin: bevel;stroke-miterlimit: 0;stroke-dasharray: 2.0, 2.0;" clip-path="url(#4744385419576815639clip-2)"/><line x1="52.96" y1="191" x2="752" y2="191" style="stroke-width: 0.5;stroke: rgb(192,192,192);stroke-opacity: 1.0;stroke-linejoin: bevel;stroke-miterlimit: 0;stroke-dasharray: 2.0, 2.0;" clip-path="url(#4744385419576815639clip-2)"/><line x1="52.96" y1="171" x2="752" y2="171" style="stroke-width: 0.5;stroke: rgb(192,192,192);stroke-opacity: 1.0;stroke-linejoin: bevel;stroke-miterlimit: 0;stroke-dasharray: 2.0, 2.0;" clip-path="url(#4744385419576815639clip-2)"/><line x1="52.96" y1="151" x2="752" y2="151" style="stroke-width: 0.5;stroke: rgb(192,192,192);stroke-opacity: 1.0;stroke-linejoin: bevel;stroke-miterlimit: 0;stroke-dasharray: 2.0, 2.0;" clip-path="url(#4744385419576815639clip-2)"/><line x1="52.96" y1="131" x2="752" y2="131" style="stroke-width: 0.5;stroke: rgb(192,192,192);stroke-opacity: 1.0;stroke-linejoin: bevel;stroke-miterlimit: 0;stroke-dasharray: 2.0, 2.0;" clip-path="url(#4744385419576815639clip-2)"/><line x1="52.96" y1="111" x2="752" y2="111" style="stroke-width: 0.5;stroke: rgb(192,192,192);stroke-opacity: 1.0;stroke-linejoin: bevel;stroke-miterlimit: 0;stroke-dasharray: 2.0, 2.0;" clip-path="url(#4744385419576815639clip-2)"/><line x1="52.96" y1="91" x2="752" y2="91" style="stroke-width: 0.5;stroke: rgb(192,192,192);stroke-opacity: 1.0;stroke-linejoin: bevel;stroke-miterlimit: 0;stroke-dasharray: 2.0, 2.0;" clip-path="url(#4744385419576815639clip-2)"/><line x1="52.96" y1="71" x2="752" y2="71" style="stroke-width: 0.5;stroke: rgb(192,192,192);stroke-opacity: 1.0;stroke-linejoin: bevel;stroke-miterlimit: 0;stroke-dasharray: 2.0, 2.0;" clip-path="url(#4744385419576815639clip-2)"/><line x1="52.96" y1="51" x2="752" y2="51" style="stroke-width: 0.5;stroke: rgb(192,192,192);stroke-opacity: 1.0;stroke-linejoin: bevel;stroke-miterlimit: 0;stroke-dasharray: 2.0, 2.0;" clip-path="url(#4744385419576815639clip-2)"/><line x1="52.96" y1="31" x2="752" y2="31" style="stroke-width: 0.5;stroke: rgb(192,192,192);stroke-opacity: 1.0;stroke-linejoin: bevel;stroke-miterlimit: 0;stroke-dasharray: 2.0, 2.0;" clip-path="url(#4744385419576815639clip-2)"/><g style="fill: rgb(255,85,255); fill-opacity: 1.0; stroke: none" clip-path="url(#4744385419576815639clip-2)"><path fill-rule="evenodd" d="M 296.57 448.01 L 299.57 451.01 L 296.57 454.01 L 293.57 451.01 Z "/></g><g style="stroke-width: 1.0;stroke: rgb(255,85,255);stroke-opacity: 1.0;stroke-linecap: square;stroke-miterlimit: 10;; fill: none" clip-path="url(#4744385419576815639clip-2)"><path fill-rule="evenodd" d="M 296.57 448.01 L 299.57 451.01 L 296.57 454.01 L 293.57 451.01 Z "/></g><line x1="296.57" y1="451.01" x2="402.48" y2="451.01" style="stroke-width: 0.5;stroke: rgb(255,85,255);stroke-opacity: 1.0;stroke-linecap: square;stroke-miterlimit: 10;" clip-path="url(#4744385419576815639clip-2)"/><g style="fill: rgb(255,85,255); fill-opacity: 1.0; stroke: none" clip-path="url(#4744385419576815639clip-2)"><path fill-rule="evenodd" d="M 402.48 448.01 L 405.48 451.01 L 402.48 454.01 L 399.48 451.01 Z "/></g><g style="stroke-width: 1.0;stroke: rgb(255,85,255);stroke-opacity: 1.0;stroke-linecap: square;stroke-miterlimit: 10;; fill: none" clip-path="url(#4744385419576815639clip-2)"><path fill-rule="evenodd" d="M 402.48 448.01 L 405.48 451.01 L 402.48 454.01 L 399.48 451.01 Z "/></g><line x1="402.48" y1="451.01" x2="508.4" y2="291" style="stroke-width: 0.5;stroke: rgb(255,85,255);stroke-opacity: 1.0;stroke-linecap: square;stroke-miterlimit: 10;" clip-path="url(#4744385419576815639clip-2)"/><g style="fill: rgb(255,85,255); fill-opacity: 1.0; stroke: none" clip-path="url(#4744385419576815639clip-2)"><path fill-rule="evenodd" d="M 508.4 288 L 511.4 291 L 508.4 294 L 505.4 291 Z "/></g><g style="stroke-width: 1.0;stroke: rgb(255,85,255);stroke-opacity: 1.0;stroke-linecap: square;stroke-miterlimit: 10;; fill: none" clip-path="url(#4744385419576815639clip-2)"><path fill-rule="evenodd" d="M 508.4 288 L 511.4 291 L 508.4 294 L 505.4 291 Z "/></g><line x1="508.4" y1="291" x2="614.31" y2="51" style="stroke-width: 0.5;stroke: rgb(255,85,255);stroke-opacity: 1.0;stroke-linecap: square;stroke-miterlimit: 10;" clip-path="url(#4744385419576815639clip-2)"/><g style="fill: rgb(255,85,255); fill-opacity: 1.0; stroke: none" clip-path="url(#4744385419576815639clip-2)"><path fill-rule="evenodd" d="M 614.31 48 L 617.31 51 L 614.31 54 L 611.31 51 Z "/></g><g style="stroke-width: 1.0;stroke: rgb(255,85,255);stroke-opacity: 1.0;stroke-linecap: square;stroke-miterlimit: 10;; fill: none" clip-path="url(#4744385419576815639clip-2)"><path fill-rule="evenodd" d="M 614.31 48 L 617.31 51 L 614.31 54 L 611.31 51 Z "/></g><line x1="614.31" y1="51" x2="720.23" y2="251" style="stroke-width: 0.5;stroke: rgb(255,85,255);stroke-opacity: 1.0;stroke-linecap: square;stroke-miterlimit: 10;" clip-path="url(#4744385419576815639clip-2)"/><g style="fill: rgb(255,85,255); fill-opacity: 1.0; stroke: none" clip-path="url(#4744385419576815639clip-2)"><path fill-rule="evenodd" d="M 720.23 248 L 723.23 251 L 720.23 254 L 717.23 251 Z "/></g><g style="stroke-width: 1.0;stroke: rgb(255,85,255);stroke-opacity: 1.0;stroke-linecap: square;stroke-miterlimit: 10;; fill: none" clip-path="url(#4744385419576815639clip-2)"><path fill-rule="evenodd" d="M 720.23 248 L 723.23 251 L 720.23 254 L 717.23 251 Z "/></g><g style="fill: rgb(85,255,85); fill-opacity: 1.0; stroke: none" clip-path="url(#4744385419576815639clip-2)"><path fill-rule="evenodd" d="M 84.74 248 L 87.74 254 L 81.74 254 Z "/></g><g style="stroke-width: 1.0;stroke: rgb(85,255,85);stroke-opacity: 1.0;stroke-linecap: square;stroke-miterlimit: 10;; fill: none" clip-path="url(#4744385419576815639clip-2)"><path fill-rule="evenodd" d="M 84.74 248 L 87.74 254 L 81.74 254 Z "/></g><line x1="84.74" y1="251" x2="190.65" y2="251" style="stroke-width: 0.5;stroke: rgb(85,255,85);stroke-opacity: 1.0;stroke-linecap: square;stroke-miterlimit: 10;" clip-path="url(#4744385419576815639clip-2)"/><g style="fill: rgb(85,255,85); fill-opacity: 1.0; stroke: none" clip-path="url(#4744385419576815639clip-2)"><path fill-rule="evenodd" d="M 190.65 248 L 193.65 254 L 187.65 254 Z "/></g><g style="stroke-width: 1.0;stroke: rgb(85,255,85);stroke-opacity: 1.0;stroke-linecap: square;stroke-miterlimit: 10;; fill: none" clip-path="url(#4744385419576815639clip-2)"><path fill-rule="evenodd" d="M 190.65 248 L 193.65 254 L 187.65 254 Z "/></g><line x1="190.65" y1="251" x2="296.57" y2="291" style="stroke-width: 0.5;stroke: rgb(85,255,85);stroke-opacity: 1.0;stroke-linecap: square;stroke-miterlimit: 10;" clip-path="url(#4744385419576815639clip-2)"/><g style="fill: rgb(85,255,85); fill-opacity: 1.0; stroke: none" clip-path="url(#4744385419576815639clip-2)"><path fill-rule="evenodd" d="M 296.57 288 L 299.57 294 L 293.57 294 Z "/></g><g style="stroke-width: 1.0;stroke: rgb(85,255,85);stroke-opacity: 1.0;stroke-linecap: square;stroke-miterlimit: 10;; fill: none" clip-path="url(#4744385419576815639clip-2)"><path fill-rule="evenodd" d="M 296.57 288 L 299.57 294 L 293.57 294 Z "/></g><line x1="296.57" y1="291" x2="402.48" y2="291" style="stroke-width: 0.5;stroke: rgb(85,255,85);stroke-opacity: 1.0;stroke-linecap: square;stroke-miterlimit: 10;" clip-path="url(#4744385419576815639clip-2)"/><g style="fill: rgb(85,255,85); fill-opacity: 1.0; stroke: none" clip-path="url(#4744385419576815639clip-2)"><path fill-rule="evenodd" d="M 402.48 288 L 405.48 294 L 399.48 294 Z "/></g><g style="stroke-width: 1.0;stroke: rgb(85,255,85);stroke-opacity: 1.0;stroke-linecap: square;stroke-miterlimit: 10;; fill: none" clip-path="url(#4744385419576815639clip-2)"><path fill-rule="evenodd" d="M 402.48 288 L 405.48 294 L 399.48 294 Z "/></g><line x1="402.48" y1="291" x2="508.4" y2="451.01" style="stroke-width: 0.5;stroke: rgb(85,255,85);stroke-opacity: 1.0;stroke-linecap: square;stroke-miterlimit: 10;" clip-path="url(#4744385419576815639clip-2)"/><g style="fill: rgb(85,255,85); fill-opacity: 1.0; stroke: none" clip-path="url(#4744385419576815639clip-2)"><path fill-rule="evenodd" d="M 508.4 448.01 L 511.4 454.01 L 505.4 454.01 Z "/></g><g style="stroke-width: 1.0;stroke: rgb(85,255,85);stroke-opacity: 1.0;stroke-linecap: square;stroke-miterlimit: 10;; fill: none" clip-path="url(#4744385419576815639clip-2)"><path fill-rule="evenodd" d="M 508.4 448.01 L 511.4 454.01 L 505.4 454.01 Z "/></g><line x1="508.4" y1="451.01" x2="614.31" y2="451.01" style="stroke-width: 0.5;stroke: rgb(85,255,85);stroke-opacity: 1.0;stroke-linecap: square;stroke-miterlimit: 10;" clip-path="url(#4744385419576815639clip-2)"/><g style="fill: rgb(85,255,85); fill-opacity: 1.0; stroke: none" clip-path="url(#4744385419576815639clip-2)"><path fill-rule="evenodd" d="M 614.31 448.01 L 617.31 454.01 L 611.31 454.01 Z "/></g><g style="stroke-width: 1.0;stroke: rgb(85,255,85);stroke-opacity: 1.0;stroke-linecap: square;stroke-miterlimit: 10;; fill: none" clip-path="url(#4744385419576815639clip-2)"><path fill-rule="evenodd" d="M 614.31 448.01 L 617.31 454.01 L 611.31 454.01 Z "/></g><g style="fill: rgb(85,85,255); fill-opacity: 1.0; stroke: none" clip-path="url(#4744385419576815639clip-2)"><path d="M 511.4 451.01 C 511.4 452.66 510.05 454.01 508.4 454.01 C 506.74 454.01 505.4 452.66 505.4 451.01 C 505.4 449.35 506.74 448.01 508.4 448.01 C 510.05 448.01 511.4 449.35 511.4 451.01 Z "/></g><g style="stroke-width: 1.0;stroke: rgb(85,85,255);stroke-opacity: 1.0;stroke-linecap: square;stroke-miterlimit: 10;; fill: none" clip-path="url(#4744385419576815639clip-2)"><path d="M 511.4 451.01 C 511.4 452.66 510.05 454.01 508.4 454.01 C 506.74 454.01 505.4 452.66 505.4 451.01 C 505.4 449.35 506.74 448.01 508.4 448.01 C 510.05 448.01 511.4 449.35 511.4 451.01 Z "/></g><line x1="508.4" y1="451.01" x2="614.31" y2="251" style="stroke-width: 0.5;stroke: rgb(85,85,255);stroke-opacity: 1.0;stroke-linecap: square;stroke-miterlimit: 10;" clip-path="url(#4744385419576815639clip-2)"/><g style="fill: rgb(85,85,255); fill-opacity: 1.0; stroke: none" clip-path="url(#4744385419576815639clip-2)"><path d="M 617.31 251 C 617.31 252.66 615.97 254 614.31 254 C 612.65 254 611.31 252.66 611.31 251 C 611.31 249.34 612.65 248 614.31 248 C 615.97 248 617.31 249.34 617.31 251 Z "/></g><g style="stroke-width: 1.0;stroke: rgb(85,85,255);stroke-opacity: 1.0;stroke-linecap: square;stroke-miterlimit: 10;; fill: none" clip-path="url(#4744385419576815639clip-2)"><path d="M 617.31 251 C 617.31 252.66 615.97 254 614.31 254 C 612.65 254 611.31 252.66 611.31 251 C 611.31 249.34 612.65 248 614.31 248 C 615.97 248 617.31 249.34 617.31 251 Z "/></g><line x1="614.31" y1="251" x2="720.23" y2="291" style="stroke-width: 0.5;stroke: rgb(85,85,255);stroke-opacity: 1.0;stroke-linecap: square;stroke-miterlimit: 10;" clip-path="url(#4744385419576815639clip-2)"/><g style="fill: rgb(85,85,255); fill-opacity: 1.0; stroke: none" clip-path="url(#4744385419576815639clip-2)"><path d="M 723.23 291 C 723.23 292.66 721.88 294 720.23 294 C 718.57 294 717.23 292.66 717.23 291 C 717.23 289.35 718.57 288 720.23 288 C 721.88 288 723.23 289.35 723.23 291 Z "/></g><g style="stroke-width: 1.0;stroke: rgb(85,85,255);stroke-opacity: 1.0;stroke-linecap: square;stroke-miterlimit: 10;; fill: none" clip-path="url(#4744385419576815639clip-2)"><path d="M 723.23 291 C 723.23 292.66 721.88 294 720.23 294 C 718.57 294 717.23 292.66 717.23 291 C 717.23 289.35 718.57 288 720.23 288 C 721.88 288 723.23 289.35 723.23 291 Z "/></g><g style="fill: rgb(255,85,85); fill-opacity: 1.0; stroke: none" clip-path="url(#4744385419576815639clip-2)"><path d="M 81.74 208 L 87.74 208 L 87.74 214 L 81.74 214 L 81.74 208 Z "/></g><g style="stroke-width: 1.0;stroke: rgb(255,85,85);stroke-opacity: 1.0;stroke-linecap: square;stroke-miterlimit: 10;; fill: none" clip-path="url(#4744385419576815639clip-2)"><path d="M 81.74 208 L 87.74 208 L 87.74 214 L 81.74 214 L 81.74 208 Z "/></g><line x1="84.74" y1="211" x2="190.65" y2="211" style="stroke-width: 0.5;stroke: rgb(255,85,85);stroke-opacity: 1.0;stroke-linecap: square;stroke-miterlimit: 10;" clip-path="url(#4744385419576815639clip-2)"/><g style="fill: rgb(255,85,85); fill-opacity: 1.0; stroke: none" clip-path="url(#4744385419576815639clip-2)"><path d="M 187.65 208 L 193.65 208 L 193.65 214 L 187.65 214 L 187.65 208 Z "/></g><g style="stroke-width: 1.0;stroke: rgb(255,85,85);stroke-opacity: 1.0;stroke-linecap: square;stroke-miterlimit: 10;; fill: none" clip-path="url(#4744385419576815639clip-2)"><path d="M 187.65 208 L 193.65 208 L 193.65 214 L 187.65 214 L 187.65 208 Z "/></g><line x1="190.65" y1="211" x2="296.57" y2="211" style="stroke-width: 0.5;stroke: rgb(255,85,85);stroke-opacity: 1.0;stroke-linecap: square;stroke-miterlimit: 10;" clip-path="url(#4744385419576815639clip-2)"/><g style="fill: rgb(255,85,85); fill-opacity: 1.0; stroke: none" clip-path="url(#4744385419576815639clip-2)"><path d="M 293.57 208 L 299.57 208 L 299.57 214 L 293.57 214 L 293.57 208 Z "/></g><g style="stroke-width: 1.0;stroke: rgb(255,85,85);stroke-opacity: 1.0;stroke-linecap: square;stroke-miterlimit: 10;; fill: none" clip-path="url(#4744385419576815639clip-2)"><path d="M 293.57 208 L 299.57 208 L 299.57 214 L 293.57 214 L 293.57 208 Z "/></g><line x1="296.57" y1="211" x2="402.48" y2="211" style="stroke-width: 0.5;stroke: rgb(255,85,85);stroke-opacity: 1.0;stroke-linecap: square;stroke-miterlimit: 10;" clip-path="url(#4744385419576815639clip-2)"/><g style="fill: rgb(255,85,85); fill-opacity: 1.0; stroke: none" clip-path="url(#4744385419576815639clip-2)"><path d="M 399.48 208 L 405.48 208 L 405.48 214 L 399.48 214 L 399.48 208 Z "/></g><g style="stroke-width: 1.0;stroke: rgb(255,85,85);stroke-opacity: 1.0;stroke-linecap: square;stroke-miterlimit: 10;; fill: none" clip-path="url(#4744385419576815639clip-2)"><path d="M 399.48 208 L 405.48 208 L 405.48 214 L 399.48 214 L 399.48 208 Z "/></g><line x1="402.48" y1="211" x2="508.4" y2="251" style="stroke-width: 0.5;stroke: rgb(255,85,85);stroke-opacity: 1.0;stroke-linecap: square;stroke-miterlimit: 10;" clip-path="url(#4744385419576815639clip-2)"/><g style="fill: rgb(255,85,85); fill-opacity: 1.0; stroke: none" clip-path="url(#4744385419576815639clip-2)"><path d="M 505.4 248 L 511.4 248 L 511.4 254 L 505.4 254 L 505.4 248 Z "/></g><g style="stroke-width: 1.0;stroke: rgb(255,85,85);stroke-opacity: 1.0;stroke-linecap: square;stroke-miterlimit: 10;; fill: none" clip-path="url(#4744385419576815639clip-2)"><path d="M 505.4 248 L 511.4 248 L 511.4 254 L 505.4 254 L 505.4 248 Z "/></g><line x1="508.4" y1="251" x2="614.31" y2="171" style="stroke-width: 0.5;stroke: rgb(255,85,85);stroke-opacity: 1.0;stroke-linecap: square;stroke-miterlimit: 10;" clip-path="url(#4744385419576815639clip-2)"/><g style="fill: rgb(255,85,85); fill-opacity: 1.0; stroke: none" clip-path="url(#4744385419576815639clip-2)"><path d="M 611.31 168 L 617.31 168 L 617.31 174 L 611.31 174 L 611.31 168 Z "/></g><g style="stroke-width: 1.0;stroke: rgb(255,85,85);stroke-opacity: 1.0;stroke-linecap: square;stroke-miterlimit: 10;; fill: none" clip-path="url(#4744385419576815639clip-2)"><path d="M 611.31 168 L 617.31 168 L 617.31 174 L 611.31 174 L 611.31 168 Z "/></g><line x1="614.31" y1="171" x2="720.23" y2="411" style="stroke-width: 0.5;stroke: rgb(255,85,85);stroke-opacity: 1.0;stroke-linecap: square;stroke-miterlimit: 10;" clip-path="url(#4744385419576815639clip-2)"/><g style="fill: rgb(255,85,85); fill-opacity: 1.0; stroke: none" clip-path="url(#4744385419576815639clip-2)"><path d="M 717.23 408 L 723.23 408 L 723.23 414 L 717.23 414 L 717.23 408 Z "/></g><g style="stroke-width: 1.0;stroke: rgb(255,85,85);stroke-opacity: 1.0;stroke-linecap: square;stroke-miterlimit: 10;; fill: none" clip-path="url(#4744385419576815639clip-2)"><path d="M 717.23 408 L 723.23 408 L 723.23 414 L 717.23 414 L 717.23 408 Z "/></g><line x1="52.96" y1="491.01" x2="752" y2="491.01" style="stroke-width: 2.0;stroke: rgb(128,128,128);stroke-opacity: 0.8;stroke-linecap: square;stroke-miterlimit: 10;" clip-path="url(#4744385419576815639clip-2)"/><rect x="52.96" y="29" width="699.04" height="462.01" style="stroke-width: 0.5;stroke: rgb(128,128,128);stroke-opacity: 1.0;stroke-linecap: square;stroke-miterlimit: 10;; fill: none" clip-path="url(#4744385419576815639clip-0)"/></svg>
